<?xml version="1.0" encoding="UTF-8" standalone="no"?>
<!-- Created with Inkscape (http://www.inkscape.org/) -->

<svg
   width="99.671295mm"
   height="92.074417mm"
   viewBox="0 0 99.671295 92.074417"
   version="1.1"
   id="svg5"
   xml:space="preserve"
   xmlns:inkscape="http://www.inkscape.org/namespaces/inkscape"
   xmlns:sodipodi="http://sodipodi.sourceforge.net/DTD/sodipodi-0.dtd"
   xmlns="http://www.w3.org/2000/svg"
   xmlns:svg="http://www.w3.org/2000/svg"><sodipodi:namedview
     id="namedview7"
     pagecolor="#ffffff"
     bordercolor="#000000"
     borderopacity="0.25"
     inkscape:showpageshadow="2"
     inkscape:pageopacity="0.0"
     inkscape:pagecheckerboard="0"
     inkscape:deskcolor="#d1d1d1"
     inkscape:document-units="mm"
     showgrid="false" /><defs
     id="defs2"><rect
       x="232.66946"
       y="371.28555"
       width="62.923489"
       height="45.159027"
       id="rect1678" /></defs><g
     inkscape:label="Layer 1"
     inkscape:groupmode="layer"
     id="layer1"
     transform="translate(-131.50744,-56.497944)"><g
       id="g4681"
       transform="matrix(0.03391465,0,0,-0.03763188,117.78193,1538.5282)"><path
         d="M 2496.0188,37124.753 H 970.3969 c -89.5425,0 -162.135,72.6 -162.135,162.141 v 954.187 c 0,89.55 72.5925,162.141 162.135,162.141 h 1525.6219 c 89.55,0 162.1406,-72.591 162.1406,-162.141 v -954.187 c 0,-89.541 -72.5906,-162.141 -162.1406,-162.141"
         style="fill:#c3c3e2;fill-opacity:1;fill-rule:nonzero;stroke:none;stroke-width:0.09375"
         id="path2649" /><path
         d="M 2496.0188,37141.703 H 970.3969 c -36.51188,0 -69.91969,13.547 -95.46094,35.888 H 2491.0876 c 63.7312,0 115.3968,51.675 115.3968,115.443 v 172.322 c 0.5438,-0.703 1.1063,-1.397 1.6969,-2.072 8.3531,-9.684 20.3063,-15.422 33.0281,-15.937 v -160.453 c 0,-80.053 -65.1281,-145.191 -145.1906,-145.191 m 110.4656,419.878 v 773.616 c 21.6469,-25.36 34.725,-58.238 34.725,-94.116 v -598.725 c -14.625,-6.075 -25.7156,-19.519 -28.125,-35.906 l -6.6,-44.869"
         style="fill:#9988c1;fill-opacity:1;fill-rule:nonzero;stroke:none;stroke-width:0.09375"
         id="path2651" /><path
         d="m 843.09565,37217.134 c -11.39719,20.719 -17.88469,44.494 -17.88469,69.76 v 954.187 c 0,80.063 65.13281,145.191 145.18594,145.191 h 172.3969 c -0.3844,-4.247 -0.5438,-8.569 -0.4219,-12.928 H 980.56877 c -76.42218,0 -138.40781,-61.941 -138.40781,-138.403 v -1001.616 c 0,-5.475 0.31687,-10.884 0.93469,-16.191 m 1712.84815,1156.191 c -0.7594,0 -1.5281,0.02 -2.2875,0.02 h -93.9094 c -0.1312,1.331 -0.2812,2.653 -0.4593,3.965 -0.3938,3.019 -0.9,6 -1.5,8.963 h 38.2312 c 21.3563,0 41.6438,-4.631 59.925,-12.947"
         style="fill:#ededf6;fill-opacity:1;fill-rule:nonzero;stroke:none;stroke-width:0.09375"
         id="path2653" /><path
         d="m 970.3969,38386.272 c -80.05313,0 -145.18594,-65.128 -145.18594,-145.191 v -954.187 c 0,-80.053 65.13281,-145.191 145.18594,-145.191 h 1525.6219 c 80.0625,0 145.1906,65.138 145.1906,145.191 v 954.187 c 0,80.063 -65.1281,145.191 -145.1906,145.191 H 970.3969 m 1525.6219,-1278.46 H 970.3969 c -98.74594,0 -179.08313,80.335 -179.08313,179.082 v 954.187 c 0,98.747 80.33719,179.091 179.08313,179.091 h 1525.6219 c 98.7469,0 179.0906,-80.344 179.0906,-179.091 v -954.187 c 0,-98.747 -80.3437,-179.082 -179.0906,-179.082"
         style="fill:#390075;fill-opacity:1;fill-rule:nonzero;stroke:none;stroke-width:0.09375"
         id="path2655" /><path
         d="M 2499.5157,37233.719 H 1031.5125 c -16.6031,0 -31.84685,5.718 -43.88435,15.29 3.7875,-0.506 7.65,-0.759 11.57812,-0.759 H 2467.2188 c 48.2438,0 87.4969,39.253 87.4969,87.506 v 856.472 c 0,4.688 -0.3656,9.291 -1.0781,13.781 10.2562,-12.234 16.4343,-28.012 16.4343,-45.262 v -856.472 c 0,-38.981 -31.6218,-70.556 -70.5562,-70.556"
         style="fill:#ededf6;fill-opacity:1;fill-rule:nonzero;stroke:none;stroke-width:0.09375"
         id="path2657" /><path
         d="m 2537.7751,38192.228 v -856.472 c 0,-38.99 -31.575,-70.565 -70.5657,-70.565 H 999.20627 c -38.98125,0 -70.55625,31.575 -70.55625,70.565 v 856.472 c 0,38.981 31.575,70.556 70.55625,70.556 H 2467.2094 c 38.9907,0 70.5657,-31.575 70.5657,-70.556"
         style="fill:#390075;fill-opacity:1;fill-rule:nonzero;stroke:none;stroke-width:0.09375"
         id="path2659" /><path
         d="m 2537.7751,38192.228 v -856.472 c 0,-38.99 -31.575,-70.565 -70.5657,-70.565 h -1324.8 c 1099.2844,130.753 1181.6063,978.225 1196.1375,997.593 h 128.6625 c 38.9907,0 70.5657,-31.575 70.5657,-70.556"
         style="fill:#2c0066;fill-opacity:1;fill-rule:nonzero;stroke:none;stroke-width:0.09375"
         id="path2661" /><path
         d="m 1610.025,37382.453 -135.3656,204.778 h 238.2094 l 76.0219,-115.003 c -54.0657,-32.503 -113.5125,-62.728 -178.8657,-89.775"
         style="fill:#613391;fill-opacity:1;fill-rule:nonzero;stroke:none;stroke-width:0.09375"
         id="path2671" /><path
         d="m 1914.5532,37282.141 h -238.2094 l -66.3188,100.312 c 65.3532,27.047 124.8,57.272 178.8657,89.775 l 125.6625,-190.087"
         style="fill:#563385;fill-opacity:1;fill-rule:nonzero;stroke:none;stroke-width:0.09375"
         id="path2673" /><path
         d="m 1706.4657,37596.916 h -82.6875 c -3.0563,3.037 -4.95,7.256 -4.95,11.915 0,4.65 1.8375,8.813 4.8937,11.86 0.01,0.02 0.019,0.03 0.028,0.04 h 66.975 l 15.7407,-23.812 m -255.9657,26.859 -411.225,622.059 h 238.2094 l 406.8375,-615.422 h -218.2594 c -6.1125,0 -11.6343,-2.55 -15.5625,-6.637"
         style="fill:#613391;fill-opacity:1;fill-rule:nonzero;stroke:none;stroke-width:0.09375"
         id="path2675" /><path
         d="m 1883.0344,37534.834 -34.6406,52.397 h 100.8844 c -20.9344,-17.822 -42.9657,-35.297 -66.2438,-52.397"
         style="fill:#613391;fill-opacity:1;fill-rule:nonzero;stroke:none;stroke-width:0.09375"
         id="path2681" /><path
         d="m 2158.6219,37282.141 h -108.5437 l -167.0438,252.693 c 23.2781,17.1 45.3094,34.575 66.2438,52.397 h 7.6593 l 201.6844,-305.09"
         style="fill:#563385;fill-opacity:1;fill-rule:nonzero;stroke:none;stroke-width:0.09375"
         id="path2683" /><path
         d="m 1950.5344,37596.916 h -108.5437 l -15.7407,23.812 h 108.5438 l 15.7406,-23.812 m -22.1437,33.496 h -108.5438 l -56.4844,85.454 c 13.0219,5.118 24.9094,13.64 34.2375,25.396 2.2594,2.85 4.3125,5.813 6.1407,8.86 2.2312,3.712 -0.3938,8.4 -4.6969,8.765 -7.7906,0.675 -15.4688,3.572 -22.0406,8.775 -17.7938,14.119 -20.8125,40.004 -6.6657,57.835 5.2875,6.665 12.2157,11.259 19.7625,13.631 0.084,0.03 0.1688,0.06 0.2532,0.09 l 138.0375,-208.81 m -253.7157,219.6 -261.6656,395.822 h 108.5438 l 216.5062,-327.506 c -3.2812,-6.159 -5.0156,-13.153 -4.8375,-20.325 0.075,-3.075 2.4375,-5.634 5.4844,-6 1.6031,-0.197 3.225,-0.291 4.8562,-0.291 3.6657,0 7.3875,0.497 11.0813,1.529 l 19.65,-29.729 c -12.7594,7.388 -26.925,10.988 -41.025,10.988 -21.4594,0 -42.7406,-8.363 -58.5938,-24.488"
         style="fill:#613391;fill-opacity:1;fill-rule:nonzero;stroke:none;stroke-width:0.09375"
         id="path2685" /><path
         d="m 2201.1376,37891.347 -220.4251,333.422 c 32.5969,5.278 62.7282,12.29 90.4313,21.065 h 74.6344 l 130.2,-196.968 c -18.6656,-48.141 -43.0031,-101.654 -74.8406,-157.519"
         style="fill:#613391;fill-opacity:1;fill-rule:nonzero;stroke:none;stroke-width:0.09375"
         id="path2693" /><path
         d="m 2520.8251,37407.784 -319.6875,483.563 c 31.8375,55.865 56.175,109.378 74.8406,157.519 l 244.8469,-370.379 v -270.703"
         style="fill:#563385;fill-opacity:1;fill-rule:nonzero;stroke:none;stroke-width:0.09375"
         id="path2695" /><path
         d="m 918.0469,37303.028 c -23.00907,21.009 -37.43532,51.244 -37.43532,84.844 v 805.95 c 0,63.487 51.47719,114.965 114.96657,114.965 h 175.98755 c 10.95,-10.556 25.5468,-20.409 44.6812,-29.053 H 999.20627 c -48.25312,0 -87.50531,-39.262 -87.50531,-87.506 v -856.472 c 0,-11.569 2.25375,-22.612 6.34594,-32.728 m 1611.6938,950.353 c -15.8906,16.247 -38.0531,26.353 -62.5219,26.353 h -53.6531 c 13.3219,8.644 23.1844,18.263 30.3375,28.388 36.4125,-3.928 67.725,-24.881 85.8375,-54.741"
         style="fill:#9988c1;fill-opacity:1;fill-rule:nonzero;stroke:none;stroke-width:0.09375"
         id="path2697" /><path
         d="m 999.20627,38245.834 c -29.55937,0 -53.60625,-24.047 -53.60625,-53.606 v -856.472 c 0,-29.569 24.04688,-53.615 53.60625,-53.615 H 2467.2188 c 29.5594,0 53.6063,24.046 53.6063,53.615 v 856.472 c 0,29.559 -24.0469,53.606 -53.6063,53.606 H 999.20627 M 2467.2188,37248.25 H 999.20627 c -48.25312,0 -87.50531,39.253 -87.50531,87.506 v 856.472 c 0,48.244 39.25219,87.506 87.50531,87.506 H 2467.2188 c 48.2438,0 87.4969,-39.262 87.4969,-87.506 v -856.472 c 0,-48.253 -39.2531,-87.506 -87.4969,-87.506"
         style="fill:#390075;fill-opacity:1;fill-rule:nonzero;stroke:none;stroke-width:0.09375"
         id="path2699" /><path
         d="m 1759.0407,38337.034 c 0,-14.259 -11.5688,-25.828 -25.8282,-25.828 -14.2687,0 -25.8281,11.569 -25.8281,25.828 0,14.269 11.5594,25.828 25.8281,25.828 14.2594,0 25.8282,-11.559 25.8282,-25.828"
         style="fill:#390075;fill-opacity:1;fill-rule:nonzero;stroke:none;stroke-width:0.09375"
         id="path2701" /><path
         d="M 2677.4719,36952.544 H 788.95221 c -61.19907,0 -110.81157,49.612 -110.81157,110.812 0,33.91 27.49032,61.397 61.40157,61.397 H 2726.8782 c 33.9094,0 61.4062,-27.487 61.4062,-61.397 0,-61.2 -49.6125,-110.812 -110.8125,-110.812"
         style="fill:#c3c3e2;fill-opacity:1;fill-rule:nonzero;stroke:none;stroke-width:0.09375"
         id="path2703" /><path
         d="M 2677.4719,36969.494 H 788.95127 c -51.75375,0 -93.86157,42.103 -93.86157,93.862 0,1.285 0.0544,2.56 0.16219,3.816 19.605,-31.041 54.22782,-51.666 93.68813,-51.666 H 2665.0032 c 5.6437,-17.062 15.0937,-32.334 27.3375,-44.84 -4.8469,-0.769 -9.8156,-1.172 -14.8688,-1.172"
         style="fill:#9988c1;fill-opacity:1;fill-rule:nonzero;stroke:none;stroke-width:0.09375"
         id="path2705" /><path
         d="m 697.73814,37078.478 c 6.20063,17.091 22.60032,29.334 41.805,29.334 H 2656.5001 l 0.5718,-12.937 H 739.54502 c -16.13625,0 -30.82406,-6.225 -41.80688,-16.397"
         style="fill:#ededf6;fill-opacity:1;fill-rule:nonzero;stroke:none;stroke-width:0.09375"
         id="path2707" /><path
         d="m 739.54314,37107.812 c -24.51187,0 -44.45344,-19.95 -44.45344,-44.456 0,-51.759 42.10782,-93.862 93.86157,-93.862 H 2677.4719 c 51.75,0 93.8625,42.103 93.8625,93.862 0,24.506 -19.9406,44.456 -44.4562,44.456 H 739.54314 M 2677.4719,36935.594 H 788.95127 c -70.4475,0 -127.75875,57.318 -127.75875,127.762 0,43.2 35.14593,78.347 78.35062,78.347 H 2726.8782 c 43.2,0 78.3469,-35.147 78.3469,-78.347 0,-70.444 -57.3094,-127.762 -127.7532,-127.762"
         style="fill:#390075;fill-opacity:1;fill-rule:nonzero;stroke:none;stroke-width:0.09375"
         id="path2709" /><path
         d="m 1478.6344,37110.231 c 6.2813,-21.431 26.1281,-37.134 49.5656,-37.134 h 410.0157 c 23.4375,0 43.2843,15.703 49.575,37.134 z m 459.5813,-66.187 H 1528.2 c -44.5031,0 -80.7093,36.206 -80.7093,80.709 0,8.025 6.5062,14.531 14.5312,14.531 h 542.3813 c 8.025,0 14.5219,-6.506 14.5219,-14.531 0,-44.503 -36.2063,-80.709 -80.7094,-80.709"
         style="fill:#390075;fill-opacity:1;fill-rule:nonzero;stroke:none;stroke-width:0.09375"
         id="path2711" /><path
         d="m 808.93502,36935.612 -404.22751,0.91 402.8822,32.962 c 23.28469,1.069 24.72187,-33.065 1.34531,-33.872"
         style="fill:#390075;fill-opacity:1;fill-rule:nonzero;stroke:none;stroke-width:0.09375"
         id="path2713" /><path
         d="m 2940.7126,36969.484 402.8812,-32.962 -404.2219,-0.91 c -23.2968,0.788 -22.0218,34.922 1.3407,33.872"
         style="fill:#390075;fill-opacity:1;fill-rule:nonzero;stroke:none;stroke-width:0.09375"
         id="path2715" /><path
         d="m 2283.6188,38466.578 c -47.1469,-157.35 -197.2594,-226.959 -418.3125,-235.959 -106.7719,-4.369 -213.7219,6.618 -317.3719,32.597 -223.6219,56.025 -358.4719,160.771 -362.7469,337.04 -0.1312,5.26 -0.1687,10.556 -0.066,15.928 1.1156,59.747 16.6688,127.388 48.2063,203.841 -4.7813,185.334 27.2531,435.187 140.0531,531 16.7531,14.194 39.6844,18.3 60.1687,10.359 97.725,-37.837 210.3469,-218.822 210.3469,-218.822 105.8625,26.485 207.9281,15.994 306.1969,-31.453 0,0 147.0563,154.313 250.4344,171.497 21.675,3.61 43.2937,-5.072 56.8031,-22.378 90.975,-116.747 71.55,-367.894 29.1938,-548.381 18.5906,-98.419 16.8093,-179.485 -2.9063,-245.269"
         style="fill:#ffad40;fill-opacity:1;fill-rule:nonzero;stroke:none;stroke-width:0.09375"
         id="path2717" /><path
         d="m 1936.5282,39085.037 c -5.8969,0 -11.8407,1.135 -17.5032,3.46 -54.3281,22.275 -109.8,33.412 -166.4156,33.412 -27.3656,0 -54.9937,-2.597 -82.8937,-7.809 -2.8313,-0.525 -5.6719,-0.778 -8.4844,-0.778 -14.8969,0 -29.1,7.219 -37.6969,19.809 -34.9687,51.235 -118.65,164.372 -193.5656,193.378 -6.9469,2.691 -14.1656,3.994 -21.3281,3.994 -13.9875,0 -27.7688,-4.969 -38.8407,-14.362 -11.2406,-9.544 -21.6843,-20.635 -31.3593,-33.019 13.4812,21.74 28.7343,40.369 45.9187,54.975 7.9688,6.769 17.8875,10.312 27.8906,10.312 5.1282,0 10.275,-0.937 15.1969,-2.84 91.3031,-35.325 200.9625,-210.197 202.0688,-211.96 3.1406,-5.053 8.6343,-7.997 14.4,-7.997 1.3593,0 2.7375,0.169 4.0968,0.507 36.2438,9.075 72.1875,13.603 107.7282,13.603 63.9,0 126.4781,-14.653 186.975,-43.875 2.3531,-1.135 4.875,-1.688 7.3687,-1.688 4.5375,0 9,1.819 12.2719,5.26 1.4344,1.5 144.2625,150.422 240.9375,166.462 2.2969,0.385 4.5938,0.563 6.8719,0.563 13.0125,0 25.5281,-6.038 33.7875,-16.641 13.8656,-17.794 25.0125,-39.122 33.7875,-63.15 -6.9563,14.1 -14.925,27.066 -23.9906,38.7 -11.4844,14.709 -28.8282,23.184 -47.0719,23.184 -3.225,0 -6.4781,-0.262 -9.7313,-0.806 -79.2562,-13.172 -184.1812,-106.94 -228.8344,-149.99 -8.6437,-8.335 -20.0156,-12.704 -31.5843,-12.704"
         style="fill:#ffe6c5;fill-opacity:1;fill-rule:nonzero;stroke:none;stroke-width:0.09375"
         id="path2719" /><path
         d="m 2283.6188,38466.578 c -47.1469,-157.35 -197.2594,-226.959 -418.3125,-235.959 -106.7719,-4.369 -213.7219,6.618 -317.3719,32.597 -223.6219,56.025 -358.4719,160.771 -362.7469,337.04 1.9032,1.463 3.0094,2.203 3.0094,2.203 24.2813,160.463 169.6781,145.707 261.1219,64.566 59.7187,-52.453 121.875,-49.828 186.15,0.525 0.7312,0.553 1.4156,1.106 2.1469,1.706 64.6031,51.3 159.2343,43.556 213.0281,-19.012 1.4812,-1.716 2.9156,-3.478 4.3969,-5.25 52.6968,-62.363 113.0156,-77.569 182.1562,-38.344 106.0313,60.853 251.3813,45.75 242.5407,-116.306 0,0 1.9125,-8.897 3.8812,-23.766"
         style="fill:#fff3e9;fill-opacity:1;fill-rule:nonzero;stroke:none;stroke-width:0.09375"
         id="path2721" /><path
         d="m 1622.6719,38868.25 c -8.3719,-13.791 -32.4375,-14.466 -53.7562,-1.519 -21.3188,12.947 -24.6375,30.769 -16.2657,44.55 8.3625,13.791 25.2563,18.319 46.575,5.372 21.3188,-12.947 31.8188,-34.622 23.4469,-48.403"
         style="fill:#ffffff;fill-opacity:1;fill-rule:nonzero;stroke:none;stroke-width:0.09375"
         id="path2723" /><path
         d="m 1361.6063,38960.547 c -8.5219,0 -16.6594,6.384 -17.2688,16.059 9.75,9.853 19.5657,19.369 29.4469,28.538 0.01,0 0.028,0.03 0.037,0.04 0.019,0.02 0.038,0.03 0.047,0.05 3.9281,3.638 7.875,7.228 11.8219,10.763 v 0 c 48.975,43.781 99.6843,78.815 152.6156,102.665 -10.5,20.597 -20.625,38.335 -30.2531,53.597 0.019,-0.02 0.037,-0.03 0.056,-0.05 v 0 0 c -1.8,2.85 -3.5812,5.616 -5.3437,8.297 13.4062,-17.662 28.0968,-40.303 43.7437,-69.337 4.6313,-8.579 1.3031,-19.257 -7.425,-23.597 -57.5906,-28.594 -112.5656,-70.369 -165.5625,-122.072 -3.5062,-3.422 -7.7531,-4.95 -11.9156,-4.95"
         style="fill:#ffe6c5;fill-opacity:1;fill-rule:nonzero;stroke:none;stroke-width:0.09375"
         id="path2725" /><path
         d="m 1910.175,38834.528 c 7.1063,-14.475 31.0219,-17.287 53.4094,-6.291 22.3875,10.997 27.2813,28.454 20.1656,42.929 -7.1156,14.475 -23.5312,20.493 -45.9187,9.487 -22.3875,-10.997 -34.7719,-31.65 -27.6563,-46.125"
         style="fill:#ffffff;fill-opacity:1;fill-rule:nonzero;stroke:none;stroke-width:0.09375"
         id="path2727" /><path
         d="m 1538.3063,39118.656 c -73.9875,-33.337 -143.6344,-88.537 -210.2719,-158.897 0,0 -11.2125,205.463 69.2906,297.235 6.2157,7.087 16.4907,9.103 25.0594,5.165 21.7031,-9.975 64.0781,-41.831 115.9219,-143.503"
         style="fill:#fff3e9;fill-opacity:1;fill-rule:nonzero;stroke:none;stroke-width:0.09375"
         id="path2729" /><path
         d="m 1328.0344,38959.759 c 0,0 -11.2312,205.453 69.2719,297.235 0.6469,0.731 1.3406,1.406 2.0625,2.034 -0.7219,-0.628 -1.4063,-1.303 -2.0438,-2.034 -80.5031,-91.772 -69.2906,-297.235 -69.2906,-297.235 v 0 0 m 174.7313,220.744 c -0.056,0.08 -0.1219,0.15 -0.1782,0.225 -35.3718,53.7 -63.7406,73.866 -80.2031,81.431 -2.9062,1.341 -6.0094,1.988 -9.0844,1.988 -1.2937,0 -2.5781,-0.113 -3.8437,-0.347 1.275,0.234 2.5687,0.347 3.8719,0.347 3.0562,0 6.15,-0.638 9.0468,-1.969 16.4719,-7.584 44.925,-27.797 80.3907,-81.675"
         style="fill:#c37950;fill-opacity:1;fill-rule:nonzero;stroke:none;stroke-width:0.09375"
         id="path2731" /><path
         d="m 1373.7844,39005.144 c 0.01,0 0.028,0.03 0.037,0.04 -0.01,0 -0.028,-0.03 -0.037,-0.04 m 0.084,0.08 c 3.9375,3.647 7.875,7.238 11.8219,10.763 v 0 c -3.9469,-3.535 -7.8938,-7.125 -11.8219,-10.763 m 134.2406,166.978 c -0.019,0.02 -0.038,0.03 -0.056,0.05 -1.8375,2.916 -3.6563,5.738 -5.4657,8.475 0.056,-0.08 0.1219,-0.15 0.1782,-0.225 1.7625,-2.681 3.5437,-5.447 5.3437,-8.297"
         style="fill:#c3a1ad;fill-opacity:1;fill-rule:nonzero;stroke:none;stroke-width:0.09375"
         id="path2733" /><path
         d="m 1328.0344,38959.759 c 0,0 -11.2125,205.463 69.2906,297.235 0.6375,0.731 1.3219,1.406 2.0438,2.034 2.9062,2.494 6.4031,4.106 10.0875,4.772 1.2656,0.234 2.55,0.347 3.8437,0.347 3.075,0 6.1782,-0.647 9.0844,-1.988 16.4625,-7.565 44.8313,-27.731 80.2031,-81.431 1.8094,-2.737 3.6282,-5.559 5.4657,-8.475 -29.3157,25.978 -51.0188,35.869 -64.5282,39.544 -1.8843,0.506 -3.7968,0.759 -5.6906,0.759 -7.2562,0 -14.25,-3.619 -18.1781,-10.012 -31.3406,-50.635 -36.675,-124.341 -33.9656,-186.553 -3.9469,-3.525 -7.8844,-7.116 -11.8219,-10.763 -0.01,-0.02 -0.028,-0.03 -0.047,-0.05 -0.01,0 -0.028,-0.03 -0.037,-0.04 -15.4219,-14.297 -30.6562,-29.457 -45.75,-45.385 v 0"
         style="fill:#c3aac6;fill-opacity:1;fill-rule:nonzero;stroke:none;stroke-width:0.09375"
         id="path2735" /><path
         d="m 2244.5344,38868.625 c -3.5718,0 -7.1812,1.641 -9.4968,5.184 -2.8032,4.294 -5.625,8.532 -8.4657,12.732 9.2438,42.468 28.275,149.296 8.0532,234.14 0.01,-0.02 0.019,-0.04 0.028,-0.06 v 0 0 c -3.8625,16.191 -9.1313,31.528 -16.1719,45.497 0.066,0 0.1406,0.03 0.2063,0.05 1.6218,0.375 3.2531,0.553 4.875,0.553 7.5656,0 14.7937,-3.947 18.6187,-10.706 46.65,-82.36 25.4156,-220.444 13.5188,-278.316 -1.1907,-5.822 -6.1407,-9.075 -11.1657,-9.075"
         style="fill:#ffe6c5;fill-opacity:1;fill-rule:nonzero;stroke:none;stroke-width:0.09375"
         id="path2737" /><path
         d="m 2048.6157,39066.241 c 65.6719,-47.682 122.6437,-115.894 173.5781,-198.329 0,0 52.7531,198.9 -7.4156,305.119 -4.6406,8.203 -14.2969,12.263 -23.4844,10.153 -23.2781,-5.353 -71.2406,-27.928 -142.6781,-116.943"
         style="fill:#fff3e9;fill-opacity:1;fill-rule:nonzero;stroke:none;stroke-width:0.09375"
         id="path2739" /><path
         d="m 2048.6157,39066.241 c 71.4375,89.025 119.4,111.59 142.6875,116.953 1.6125,0.375 3.2344,0.553 4.8469,0.553 2.8312,0 5.625,-0.553 8.2031,-1.603 -2.5781,1.04 -5.3625,1.593 -8.1938,1.593 -1.6125,0 -3.2531,-0.178 -4.8656,-0.553 -23.2781,-5.353 -71.2406,-27.928 -142.6781,-116.943 m 169.8562,99.881 c -1.1812,2.344 -2.4093,4.65 -3.6937,6.909 -0.4969,0.881 -1.05,1.706 -1.6594,2.494 0.6094,-0.788 1.1719,-1.622 1.6688,-2.494 1.2843,-2.269 2.5125,-4.565 3.6937,-6.909 0,0 -0.01,0 -0.01,0"
         style="fill:#c37950;fill-opacity:1;fill-rule:nonzero;stroke:none;stroke-width:0.09375"
         id="path2741" /><path
         d="m 2234.6532,39120.625 c -0.01,0.02 -0.019,0.04 -0.028,0.06 -3.8532,16.144 -9.1219,31.481 -16.1532,45.441 0,0 0.01,0 0.01,0 7.0406,-13.969 12.3094,-29.306 16.1719,-45.497"
         style="fill:#c3a1ad;fill-opacity:1;fill-rule:nonzero;stroke:none;stroke-width:0.09375"
         id="path2743" /><path
         d="m 2099.4563,39023.753 c -16.3406,15.534 -33.2625,29.738 -50.8406,42.488 v 0 0 c 71.4375,89.015 119.4,111.59 142.6781,116.943 1.6125,0.375 3.2531,0.553 4.8656,0.553 2.8313,0 5.6157,-0.553 8.1938,-1.593 3.4031,-1.397 6.45,-3.647 8.7656,-6.619 0.6094,-0.788 1.1625,-1.613 1.6594,-2.494 1.2844,-2.259 2.5125,-4.565 3.6937,-6.909 7.0313,-13.96 12.3,-29.297 16.1532,-45.441 -1.6407,2.26 -3.2813,4.472 -5.025,6.61 -4.0875,5.128 -10.2657,7.893 -16.5938,7.893 -2.7656,0 -5.5687,-0.525 -8.2312,-1.622 -19.8469,-8.053 -57.1594,-32.962 -105.3188,-109.809"
         style="fill:#c3aac6;fill-opacity:1;fill-rule:nonzero;stroke:none;stroke-width:0.09375"
         id="path2745" /><path
         d="m 1413.2907,39250.769 c -2.25,0 -4.425,-0.91 -5.9063,-2.597 -57.5531,-65.616 -65.8312,-195.91 -66.4219,-255.994 60.2719,59.944 119.1563,103.575 179.025,132.675 -47.4187,89.147 -84.7406,116.663 -103.1906,125.147 -1.125,0.516 -2.325,0.769 -3.5062,0.769 z m -85.2563,-304.397 c -1.5469,0 -3.1031,0.272 -4.6125,0.825 -5.0156,1.837 -8.4562,6.487 -8.7469,11.831 -0.4687,8.606 -10.5562,212.006 72.5813,306.788 10.0312,11.418 26.7656,14.915 40.725,8.503 27.3937,-12.591 70.8375,-48.76 122.2406,-149.588 1.6688,-3.262 1.9219,-7.059 0.7031,-10.519 -1.2093,-3.45 -3.7875,-6.253 -7.125,-7.762 -68.55,-30.881 -135.9468,-81.881 -206.0437,-155.897 -2.5781,-2.719 -6.1125,-4.181 -9.7219,-4.181"
         style="fill:#390075;fill-opacity:1;fill-rule:nonzero;stroke:none;stroke-width:0.09375"
         id="path2747" /><path
         d="m 1412.25,39348.409 c -10.0031,0 -19.9218,-3.543 -27.8906,-10.312 -106.4719,-90.46 -138.7687,-335.391 -134.0812,-517.65 0.066,-2.372 -0.3657,-4.716 -1.275,-6.91 -55.3969,-134.287 -61.65,-245.7 -18.5813,-331.134 47.4375,-94.078 152.6438,-160.406 321.6375,-202.762 102.1594,-25.604 207.3188,-36.404 312.5438,-32.1 174.0656,7.115 290.5594,50.671 356.1281,133.143 59.5406,74.897 76.0688,185.25 49.125,328.003 -0.4406,2.325 -0.3844,4.716 0.15,7.013 41.6438,177.506 59.8125,423.891 -26.0531,534.103 -9.7125,12.469 -25.2938,18.628 -40.6594,16.078 -96.675,-16.04 -239.5031,-164.962 -240.9375,-166.462 -5.0719,-5.335 -13.0125,-6.769 -19.6406,-3.572 -94.1344,45.469 -193.2844,55.659 -294.7032,30.272 -7.1343,-1.772 -14.6156,1.237 -18.4968,7.49 -1.1063,1.763 -110.7657,176.635 -202.0688,211.96 -4.9219,1.903 -10.0687,2.84 -15.1969,2.84 m 407.3344,-1135.687 c -92.925,0 -185.4844,11.409 -275.7656,34.04 -179.1188,44.888 -291.525,116.982 -343.6594,220.379 -47.3437,93.89 -41.9062,213.646 16.1438,356.006 -4.5938,198.215 31.3406,443.269 146.1093,540.778 21.5344,18.291 51.1407,23.372 77.2594,13.256 89.0813,-34.462 185.9531,-175.453 212.0063,-215.353 101.2218,22.8 200.2406,12.619 294.7125,-30.262 33.6187,33.768 157.1344,152.118 251.3531,167.756 27.6375,4.584 55.5938,-6.403 72.9563,-28.688 92.55,-118.8 77.925,-366.047 33.1218,-559.19 27.9094,-151.182 8.8875,-269.541 -56.55,-351.853 -72.0656,-90.647 -196.7906,-138.375 -381.2906,-145.922 -15.4688,-0.628 -30.9375,-0.947 -46.3969,-0.947"
         style="fill:#390075;fill-opacity:1;fill-rule:nonzero;stroke:none;stroke-width:0.09375"
         id="path2749" /><path
         d="m 2067.8063,39068.584 c 52.7063,-40.659 101.4938,-95.353 148.3219,-166.293 11.6437,58.95 30.0187,188.203 -12.9938,264.14 -1.6875,2.991 -5.3156,4.51 -8.8406,3.713 -19.7906,-4.557 -61.9312,-23.916 -126.4875,-101.56 z m 154.3875,-214.05 c -4.5844,0 -8.9156,2.363 -11.3812,6.347 -53.5969,86.728 -109.2188,150.356 -170.0532,194.531 -2.9625,2.147 -4.9218,5.419 -5.4,9.047 -0.4875,3.628 0.5344,7.303 2.8219,10.153 70.8281,88.266 120.7219,114.854 150.1125,121.613 14.9625,3.45 30.6469,-3.384 38.1281,-16.603 62.1375,-109.697 10.9219,-306.797 8.7094,-315.141 -1.3687,-5.165 -5.6812,-9.019 -10.9687,-9.806 -0.6563,-0.09 -1.3125,-0.141 -1.9688,-0.141"
         style="fill:#390075;fill-opacity:1;fill-rule:nonzero;stroke:none;stroke-width:0.09375"
         id="path2751" /><path
         d="m 1784.0625,38515.459 v -57.825 c 0,-13.753 -4.4062,-27.356 -13.275,-37.912 -32.4,-38.7 -93.7031,-24.891 -106.8281,18.984 -0.094,0.385 -0.1969,0.722 -0.2906,1.106 -2.9531,10.707 -2.2219,22.182 1.1625,32.738 l 18.3562,58.069 51.2344,22.95 38.4469,-31.041 8.7656,-7.069 h 2.4281"
         style="fill:#fc4f8b;fill-opacity:1;fill-rule:nonzero;stroke:none;stroke-width:0.09375"
         id="path2753" /><path
         d="m 1702.9969,38613.306 c -36.975,24.281 -34.9312,52.603 9.9188,63.3 22.7625,5.428 46.9031,2.944 68.0906,-6.994 41.7469,-19.584 37.9875,-47.737 -3.15,-63.993 -24.6,-9.732 -52.7438,-6.844 -74.8594,7.687"
         style="fill:#390075;fill-opacity:1;fill-rule:nonzero;stroke:none;stroke-width:0.09375"
         id="path2755" /><path
         d="m 1755.0469,38599.056 c -2.8125,-49.425 -45.3094,-89.55 -95.25,-84.694 -34.1437,2.879 -68.5594,30.291 -69.15,66.01 -0.3094,10.959 2.3063,21.328 6.8438,30.328 0.4031,-10.116 1.8937,-19.678 5.3156,-27.966 12.5719,-32.353 51.8812,-40.406 82.1344,-32.784 23.9906,5.747 37.1062,27.328 39.0281,52.097 2.5594,20.484 32.4656,17.653 31.0781,-2.991"
         style="fill:#390075;fill-opacity:1;fill-rule:nonzero;stroke:none;stroke-width:0.09375"
         id="path2757" /><path
         d="m 1755.0282,38598.484 c -3.0375,-24.572 5.4656,-48.112 27.6562,-58.575 21.0375,-9.731 47.2313,-13.247 68.6156,-1.659 15.9844,8.503 25.125,25.256 29.3625,43.369 13.4813,-49.322 -33.4031,-87.31 -80.5875,-81.666 -49.8937,5.4 -83.3343,53.325 -76.05,102.291 2.9344,20.7 33.0938,17.062 31.0032,-3.76"
         style="fill:#390075;fill-opacity:1;fill-rule:nonzero;stroke:none;stroke-width:0.09375"
         id="path2759" /><path
         d="m 2278.8844,38527.562 c -5.1281,46.144 -25.6218,76.575 -54.3468,93.919 18.7875,42.656 29.5312,89.672 30.4031,140.719 0.075,4.472 3.6094,6.984 7.1344,6.984 2.7281,0 5.4562,-1.509 6.5718,-4.781 l 7.3875,-21.731 c -1.9406,-9.141 -3.9562,-18.141 -6.0281,-26.972 -0.5344,-2.297 -0.5906,-4.688 -0.15,-7.013 12.7875,-67.79 15.7875,-128.268 9.0281,-181.125"
         style="fill:#c37950;fill-opacity:1;fill-rule:nonzero;stroke:none;stroke-width:0.09375"
         id="path2761" /><path
         d="m 1819.575,38246.622 c -90.1406,0 -179.9343,11.072 -267.5156,33.019 -30.2344,7.575 -58.425,15.928 -84.6094,25.059 4.9313,9.6 8.0719,19.725 9.975,29.681 3.1313,16.388 3.0469,32.925 -0.094,49.078 73.8937,-27.778 153.6937,-41.034 233.0437,-41.034 219.8063,0 436.1344,101.775 514.1626,279.056 28.725,-17.344 49.2187,-47.775 54.3468,-93.919 -1.1812,-9.196 -2.6531,-18.168 -4.425,-26.915 -0.7875,-0.09 -1.575,-0.188 -2.3531,-0.291 -92.6625,-12.225 -159.45,-87.3 -148.8937,-167.362 1.1531,-8.747 3.2343,-17.672 6.6375,-26.344 -65.9907,-35.072 -153.8157,-54.553 -265.2469,-59.109 -15.0188,-0.61 -30.0282,-0.919 -45.0282,-0.919 m -595.6125,249.656 c -15.45,36.038 -22.6687,76.388 -21.6656,120.834 21.5531,-39.44 47.4563,-74.381 76.725,-104.953 -19.6312,-2.39 -38.2406,-7.828 -55.0594,-15.881"
         style="fill:#c3aac6;fill-opacity:1;fill-rule:nonzero;stroke:none;stroke-width:0.09375"
         id="path2763" /><path
         d="m 1819.65,38229.691 c -91.5468,0 -182.8312,11.25 -271.7156,33.525 -31.7625,7.959 -61.7344,16.903 -89.7937,26.887 3.6468,4.659 6.7218,9.553 9.3093,14.597 26.1844,-9.131 54.375,-17.484 84.6094,-25.059 87.5813,-21.947 177.375,-33.019 267.5156,-33.019 15,0 30.0094,0.309 45.0282,0.919 111.4312,4.556 199.2562,24.037 265.2469,59.109 1.9968,-5.1 4.4437,-10.116 7.4343,-14.963 -70.7437,-37.35 -162.6937,-56.615 -271.9781,-61.068 -15.2156,-0.619 -30.45,-0.928 -45.6563,-0.928 m -610.6312,258.468 c -14.7094,33.657 -22.8281,70.922 -23.8313,112.097 -0.1312,5.26 4.2,36.516 4.3032,41.888 4.0781,-8.541 8.3531,-16.875 12.8062,-25.032 -1.0031,-44.446 6.2156,-84.796 21.6656,-120.834 -5.1562,-2.466 -10.1437,-5.184 -14.9437,-8.119 m 1065.4406,12.488 c 1.7719,8.747 3.2438,17.719 4.425,26.915 6.7594,52.857 3.7594,113.335 -9.0281,181.125 -0.4406,2.325 -0.3844,4.716 0.15,7.013 2.0719,8.831 4.0875,17.831 6.0281,26.972 l 10.4907,-30.825 c 15.3843,-81.45 16.8187,-151.022 5.6812,-209.869 -5.8875,-0.178 -11.8125,-0.619 -17.7469,-1.331"
         style="fill:#390075;fill-opacity:1;fill-rule:nonzero;stroke:none;stroke-width:0.09375"
         id="path2765" /><path
         d="m 1663.2,38547.287 c -13.3875,0 -26.9156,2.982 -38.1093,9.563 4.6781,-0.403 9.1593,-0.609 13.4437,-0.609 39.6938,0 62.2594,17.634 62.2125,58.584 0.7313,-0.506 1.4813,-1.013 2.25,-1.519 6.6094,-4.34 13.7625,-7.65 21.1875,-9.881 -0.084,-0.45 -0.1594,-0.909 -0.2156,-1.378 -0.01,-0.169 -0.028,-0.338 -0.038,-0.516 -0.225,-1.584 -0.4125,-3.178 -0.5531,-4.762 -3.2625,-22.51 -16.1719,-41.485 -38.4375,-46.819 -6.9188,-1.744 -14.3063,-2.672 -21.7407,-2.663"
         style="fill:#c3aac6;fill-opacity:1;fill-rule:nonzero;stroke:none;stroke-width:0.09375"
         id="path2767" /><path
         d="m 1724.1844,38603.425 c -7.425,2.231 -14.5781,5.541 -21.1875,9.881 -0.7687,0.506 -1.5187,1.013 -2.25,1.519 -0.01,2.719 -0.1125,5.541 -0.3187,8.475 l 25.9968,-14.109 c -1.0312,-1.622 -1.8,-3.544 -2.2406,-5.766"
         style="fill:#390075;fill-opacity:1;fill-rule:nonzero;stroke:none;stroke-width:0.09375"
         id="path2769" /><path
         d="m 1664.4938,38534.622 c -24.525,0 -38.1938,6.337 -40.0969,7.584 l -18.375,17.185 c 6.6656,-1.172 13.0313,-2.025 19.0688,-2.541 11.1937,-6.581 24.7218,-9.563 38.1093,-9.563 7.4344,0 14.8219,0.919 21.7407,2.663 22.2656,5.334 35.175,24.309 38.4375,46.819 -1.2,-13.725 0.7406,-27.225 5.2875,-39.619 -4.9688,-8.269 -13.3688,-15.178 -27.1969,-18.234 -1.5281,-0.347 -3.0375,-0.657 -4.5188,-0.957 -1.8562,3.478 -5.0156,6.263 -9.075,7.547 -1.5562,0.488 -3.1406,0.722 -4.6968,0.722 -6.6282,0 -12.7875,-4.247 -14.8969,-10.903 l -0.2063,-0.666 c -1.2187,-0.03 -2.4093,-0.04 -3.5812,-0.04 m 59.4375,66.909 c 0.01,0.178 0.028,0.347 0.038,0.516 0.056,0.469 0.1312,0.928 0.2156,1.378 0.4406,2.222 1.2094,4.144 2.2406,5.766 l 0.047,-0.02 c -1.2,-1.903 -2.0531,-4.21 -2.4469,-6.928 -0.028,-0.244 -0.066,-0.469 -0.094,-0.713"
         style="fill:#390075;fill-opacity:1;fill-rule:nonzero;stroke:none;stroke-width:0.09375"
         id="path2771" /><path
         d="m 1728.6657,38557.15 c -4.5469,12.394 -6.4875,25.894 -5.2875,39.619 0.1406,1.584 0.3281,3.178 0.5531,4.762 0.028,0.244 0.066,0.469 0.094,0.713 0.3938,2.718 1.2469,5.025 2.4469,6.928 l 5.8125,-3.16 c 0,0 8.5688,-28.546 -3.6187,-48.862"
         style="fill:#390075;fill-opacity:1;fill-rule:nonzero;stroke:none;stroke-width:0.09375"
         id="path2773" /><path
         d="m 1821.075,38530.975 c -13.2468,0 -26.625,3.497 -38.3906,8.934 -12.6187,5.953 -20.8125,16.125 -24.975,28.322 15.9375,-9.384 33.8438,-14.822 50.5313,-14.822 30.5531,0 57,18.235 59.7375,63.891 0,0 9.9656,-18.403 11.175,-41.381 -4.7344,-15.863 -13.5657,-30.066 -27.8532,-37.669 -9.4312,-5.109 -19.7812,-7.275 -30.225,-7.275"
         style="fill:#c3aac6;fill-opacity:1;fill-rule:nonzero;stroke:none;stroke-width:0.09375"
         id="path2775" /><path
         d="m 1799.6719,38511.916 v 3.525 c 0,8.615 -6.9937,15.609 -15.6094,15.609 -4.7531,0 -9.0093,-2.119 -11.8687,-5.466 -21.5531,13.847 -29.8125,29.991 -32.7844,43.238 v 0.05 c 1.3031,3.3 2.2781,6.731 2.7563,10.322 4.8656,-4.079 10.0875,-7.754 15.5437,-10.96 4.1625,-12.197 12.3563,-22.369 24.975,-28.322 11.7656,-5.437 25.1438,-8.934 38.3906,-8.934 10.4438,0 20.7938,2.166 30.225,7.275 14.2875,7.603 23.1188,21.806 27.8532,37.669 0.4687,-9.019 -0.4032,-18.75 -3.7594,-28.35 -10.6875,-30.544 -64.725,-35.053 -75.7219,-35.653"
         style="fill:#390075;fill-opacity:1;fill-rule:nonzero;stroke:none;stroke-width:0.09375"
         id="path2777" /><path
         d="m 1722.8063,38381.387 c -5.4375,0 -10.95,0.563 -16.4813,1.697 -27.6093,5.7 -49.575,25.294 -57.3,51.16 -4.0406,13.509 -3.7312,28.387 0.9,43.031 l 18.3563,58.05 c 2.6062,8.222 11.3812,12.769 19.5937,10.181 8.2219,-2.606 12.7782,-11.372 10.1813,-19.594 l -18.3563,-58.059 c -2.7375,-8.644 -3,-17.175 -0.7593,-24.666 4.5,-15.065 17.1,-26.1 33.6937,-29.521 17.475,-3.61 34.7531,2.409 46.2,16.078 6.1969,7.397 9.6094,17.306 9.6094,27.909 v 57.788 c 0,8.615 6.9937,15.609 15.6187,15.609 8.6157,0 15.6094,-6.994 15.6094,-15.609 v -57.788 c 0,-17.916 -6,-34.95 -16.9031,-47.962 -15.3281,-18.3 -36.9563,-28.304 -59.9625,-28.304"
         style="fill:#390075;fill-opacity:1;fill-rule:nonzero;stroke:none;stroke-width:0.09375"
         id="path2779" /><path
         d="m 1747.2938,38563.675 -19.5281,-100.491 -4.6219,102.263 c 0.047,18.037 26.7281,16.087 24.15,-1.772"
         style="fill:#390075;fill-opacity:1;fill-rule:nonzero;stroke:none;stroke-width:0.09375"
         id="path2781" /><path
         d="m 1722.6,38412.644 c -3.2906,0 -6.6281,0.337 -9.9656,1.022 -13.4719,2.784 -24.3,10.575 -30.3187,21.459 7.1812,-1.369 13.6781,-1.997 19.5656,-1.997 57.375,0 56.3531,60.234 53.2969,86.006 4.1062,-3.44 8.5406,-6.515 13.2656,-9.15 v -52.331 c 0,-10.603 -3.4125,-20.512 -9.6094,-27.909 -9.2625,-11.053 -22.3312,-17.1 -36.2344,-17.1"
         style="fill:#c13784;fill-opacity:1;fill-rule:nonzero;stroke:none;stroke-width:0.09375"
         id="path2783" /><path
         d="m 1768.4438,38509.984 c -4.725,2.635 -9.1594,5.71 -13.2656,9.15 -0.8344,7.022 -1.8188,11.485 -1.8188,11.485 l 17.2969,-7.172 c -1.4063,-2.344 -2.2125,-5.081 -2.2125,-8.006 v -5.457"
         style="fill:#390075;fill-opacity:1;fill-rule:nonzero;stroke:none;stroke-width:0.09375"
         id="path2785" /><path
         d="m 1722.5438,38397.053 c -25.7625,0 -50.7563,15.469 -58.5844,41.653 -0.094,0.385 -0.1969,0.722 -0.2906,1.106 1.2562,-0.29 2.5219,-0.675 3.825,-1.059 5.2406,-1.537 10.1719,-2.737 14.8219,-3.628 6.0187,-10.884 16.8468,-18.675 30.3187,-21.459 3.3375,-0.685 6.675,-1.022 9.9656,-1.022 13.9032,0 26.9719,6.047 36.2344,17.1 6.1969,7.397 9.6094,17.306 9.6094,27.909 v 52.331 5.457 c 0,2.925 0.8062,5.662 2.2125,8.006 l 2.2125,-0.919 8.7656,-7.069 h 2.4281 v -57.825 c 0,-13.753 -4.4062,-27.356 -13.275,-37.912 -13.0593,-15.61 -30.8343,-22.669 -48.2437,-22.669"
         style="fill:#390075;fill-opacity:1;fill-rule:nonzero;stroke:none;stroke-width:0.09375"
         id="path2787" /><path
         d="m 2063.6344,38718.344 c -37.2468,10.687 -81.7219,13.509 -111.0656,-15.028 -8.0438,-7.135 -15.2719,-15.291 -22.3781,-23.354 -0.4125,-0.384 -0.975,-1.153 -1.0969,-0.984 l -19.4813,28.238 c 53.1563,0.768 105.6469,-18.019 126.1126,-70.819 -29.9813,40.453 -75.6094,45.834 -121.4438,32.362 -9.6,-2.578 -19.4719,3.122 -22.05,12.732 -1.6219,5.559 0.1031,10.79 2.5875,15.543 3.4406,8.307 8.5312,15.91 14.5969,22.463 42.2156,45.112 110.8594,37.453 154.2187,-1.153"
         style="fill:#390075;fill-opacity:1;fill-rule:nonzero;stroke:none;stroke-width:0.09375"
         id="path2789" /><path
         d="m 2442.4876,38375.097 c 9.3468,-70.885 -55.4625,-101.756 -138.9938,-112.772 -83.5406,-11.016 -154.1344,2.006 -163.4812,72.891 -0.5532,4.237 -0.8813,8.39 -0.9282,12.581 -1.2093,66.028 56.6438,125.409 135.2344,135.769 26.8875,3.553 52.8563,0.928 76.125,-6.629 48.9844,-15.928 85.7063,-53.775 92.0438,-101.84"
         style="fill:#fff3e9;fill-opacity:1;fill-rule:nonzero;stroke:none;stroke-width:0.09375"
         id="path2791" /><path
         d="m 2298.0657,38468.172 c -7.1156,0 -14.3063,-0.478 -21.5344,-1.425 -74.1187,-9.778 -127.8281,-67.791 -119.7094,-129.319 2.475,-18.806 10.0125,-76.05 144.45,-58.294 134.4282,17.728 126.8813,74.944 124.4063,93.75 -3.8625,29.278 -21.1406,55.172 -48.6469,72.919 -22.7625,14.672 -50.2125,22.369 -78.9656,22.369 m -42.5906,-226.21 c -97.9782,0 -126.5438,47.682 -132.2625,91.032 -10.5563,80.062 56.2312,155.137 148.8937,167.362 44.3719,5.841 88.1625,-3.412 123.3,-26.072 36.0094,-23.222 58.6969,-57.656 63.8813,-96.975 6.5906,-50.006 -14.7,-113.475 -153.5813,-131.784 -18.4875,-2.438 -35.1844,-3.563 -50.2312,-3.563"
         style="fill:#390075;fill-opacity:1;fill-rule:nonzero;stroke:none;stroke-width:0.09375"
         id="path2793" /><path
         d="m 2216.6719,38349.578 c 9.3282,-129.066 164.2407,-117.881 154.9219,11.184 l -154.9219,-11.184"
         style="fill:#fff3e9;fill-opacity:1;fill-rule:nonzero;stroke:none;stroke-width:0.09375"
         id="path2795" /><path
         d="m 2216.6719,38349.578 c 11.8125,-19.659 21.45,-38.269 37.0032,-52.856 12.7875,-12.188 27.9843,-22.697 46.2281,-21.422 42.3937,6.337 54.3562,51.009 71.6906,85.462 14.8688,-22.856 14.7656,-52.275 1.7156,-76.434 -20.7093,-39.15 -73.65,-52.5 -113.4,-36.403 -39.4687,14.55 -58.7343,63.703 -43.2375,101.653"
         style="fill:#390075;fill-opacity:1;fill-rule:nonzero;stroke:none;stroke-width:0.09375"
         id="path2797" /><path
         d="m 2223.9094,38277.859 c -38.7281,5.841 -54.5906,22.8 -61.4906,37.988 4.1156,-2.128 8.3813,-3.019 12.6375,-3.019 14.4281,0 28.725,10.219 36.7031,17.072 -1.9312,-17.981 2.55,-36.675 12.15,-52.041"
         style="fill:#c3aac6;fill-opacity:1;fill-rule:nonzero;stroke:none;stroke-width:0.09375"
         id="path2799" /><path
         d="m 2240.1376,38259.297 c -53.5875,3.122 -93.2719,23.99 -100.125,75.919 -0.5532,4.237 -0.8813,8.39 -0.9282,12.581 1.4063,-2.166 2.7563,-4.791 4.0594,-7.913 5.4281,-12.947 12.1219,-20.353 19.275,-24.037 6.9,-15.188 22.7625,-32.147 61.4906,-37.988 4.3875,-7.012 9.8344,-13.322 16.2282,-18.562"
         style="fill:#390075;fill-opacity:1;fill-rule:nonzero;stroke:none;stroke-width:0.09375"
         id="path2801" /><path
         d="m 2379.6001,38299.45 c 6.1968,20.606 3.8718,43.05 -8.0063,61.312 v 0 l -27.5062,-1.987 c 9.7312,21.666 12.1593,41.044 12.1593,41.044 l 13.4344,-24.638 c 12.5625,25.36 -0.4031,58.594 -10.3031,80.194 6.1312,-2.756 12.0375,-5.953 17.6531,-9.572 27.5063,-17.747 44.7844,-43.641 48.6469,-72.919 1.8375,-13.94 6.4594,-49.012 -46.0781,-73.434"
         style="fill:#c3aac6;fill-opacity:1;fill-rule:nonzero;stroke:none;stroke-width:0.09375"
         id="path2803" /><path
         d="m 2368.8469,38276.969 c 1.6125,2.343 3.1125,4.8 4.4625,7.359 2.625,4.856 4.725,9.928 6.2907,15.122 52.5375,24.422 47.9156,59.494 46.0781,73.434 -3.8625,29.278 -21.1406,55.172 -48.6469,72.919 -5.6156,3.619 -11.5219,6.816 -17.6531,9.572 -5.175,11.297 -9.5156,19.406 -8.9344,21.562 48.9844,-15.928 85.7063,-53.775 92.0438,-101.84 6.6937,-50.756 -24.6469,-81 -73.6407,-98.128"
         style="fill:#390075;fill-opacity:1;fill-rule:nonzero;stroke:none;stroke-width:0.09375"
         id="path2805" /><path
         d="m 2296.8844,38275.197 c -16.9031,0 -31.1343,10.022 -43.2093,21.525 -1.4532,1.369 -2.8594,2.765 -4.2094,4.2 4.3125,-0.497 8.4562,-0.731 12.4312,-0.731 45.7688,0 69.8438,31.125 82.1907,58.584 l 27.5062,1.987 v 0 0 c -17.3344,-34.453 -29.2969,-79.125 -71.6906,-85.462 -1.0125,-0.07 -2.0156,-0.103 -3.0188,-0.103"
         style="fill:#c3aac6;fill-opacity:1;fill-rule:nonzero;stroke:none;stroke-width:0.09375"
         id="path2807" /><path
         d="m 2255.1282,38258.875 c -5.1094,0 -10.1063,0.131 -14.9906,0.422 -6.3938,5.24 -11.8407,11.55 -16.2282,18.562 -9.6,15.366 -14.0812,34.06 -12.15,52.041 4.0219,3.45 6.4313,6.056 6.4313,6.056 l 9.3,-30.609 c 7.7719,-2.194 15.0937,-3.638 21.975,-4.425 1.35,-1.435 2.7562,-2.831 4.2094,-4.2 12.075,-11.503 26.3062,-21.525 43.2093,-21.525 1.0032,0 2.0063,0.04 3.0188,0.103 42.3937,6.337 54.3562,51.009 71.6906,85.462 v 0 c 11.8781,-18.262 14.2031,-40.706 8.0063,-61.312 -1.5657,-5.194 -3.6657,-10.266 -6.2907,-15.122 -1.35,-2.559 -2.85,-5.016 -4.4625,-7.359 -19.4343,-6.788 -41.6343,-11.513 -65.3531,-14.644 -16.7719,-2.213 -33.0375,-3.45 -48.3656,-3.45"
         style="fill:#390075;fill-opacity:1;fill-rule:nonzero;stroke:none;stroke-width:0.09375"
         id="path2809" /><path
         d="m 1460.775,38337.569 c -13.4156,-70.228 -84.6468,-79.153 -167.4,-63.338 -82.7625,15.816 -145.6781,50.372 -132.2625,120.6 0.7969,4.2 1.8,8.241 3.075,12.235 19.6125,63.056 93.2063,101.231 171.0657,86.353 26.6437,-5.091 50.475,-15.741 70.1812,-30.235 41.4938,-30.525 64.4438,-78 55.3406,-125.615"
         style="fill:#fff3e9;fill-opacity:1;fill-rule:nonzero;stroke:none;stroke-width:0.09375"
         id="path2811" /><path
         d="m 1301.6438,38479.656 c -61.2563,0 -113.8594,-35.578 -123.8813,-88.003 -3.5625,-18.637 -14.3906,-75.319 118.7907,-100.772 133.2,-25.462 144.0187,31.238 147.5718,49.866 5.55,29.006 -2.7093,59.025 -23.2406,84.515 -21.1969,26.316 -52.7344,44.597 -88.8187,51.488 -10.2657,1.969 -20.4657,2.906 -30.4219,2.906 m 54.4125,-229.003 c -18.9938,0 -40.8094,2.138 -65.8688,6.928 -137.5968,26.297 -155.1937,90.881 -145.725,140.428 15.1594,79.322 102.1688,129.572 193.9688,112.041 43.9687,-8.4 82.6219,-30.956 108.8437,-63.516 26.8875,-33.375 37.5938,-73.209 30.15,-112.153 -7.7437,-40.528 -36.0281,-83.728 -121.3687,-83.728"
         style="fill:#390075;fill-opacity:1;fill-rule:nonzero;stroke:none;stroke-width:0.09375"
         id="path2813" /><path
         d="m 1238.4,38384.35 c -31.7437,-125.447 118.8282,-163.547 150.5719,-38.091 L 1238.4,38384.35"
         style="fill:#fff3e9;fill-opacity:1;fill-rule:nonzero;stroke:none;stroke-width:0.09375"
         id="path2815" /><path
         d="m 1238.4,38384.359 c 6.5532,-31.031 12.15,-60.562 33.5157,-83.381 28.9968,-30.872 69.45,-6.516 92.8968,19.472 7.3875,7.622 14.6625,16.303 24.1594,25.809 6.9281,-26.381 -2.4187,-54.272 -22.4062,-73.106 -31.9688,-30.647 -86.4188,-26.672 -119.0907,1.116 -32.8968,26.222 -35.7281,78.937 -9.075,110.09"
         style="fill:#390075;fill-opacity:1;fill-rule:nonzero;stroke:none;stroke-width:0.09375"
         id="path2817" /><path
         d="m 1377.2813,38285.528 c 12.3656,17.606 17.2219,39.656 11.6906,60.731 v 0 0 l -26.7375,6.76 c 16.0594,17.503 24.4594,35.137 24.4594,35.137 l 4.9969,-27.619 c 19.9125,20.119 18.0562,55.754 15.45,79.369 4.95,-4.547 9.5437,-9.431 13.7437,-14.644 20.5313,-25.49 28.7906,-55.509 23.2406,-84.515 -2.6343,-13.819 -9.2718,-48.572 -66.8437,-55.219"
         style="fill:#c3aac6;fill-opacity:1;fill-rule:nonzero;stroke:none;stroke-width:0.09375"
         id="path2819" /><path
         d="m 1360.0125,38267.575 c 2.2688,1.716 4.4625,3.572 6.5532,5.578 4.0218,3.788 7.6031,7.941 10.7156,12.375 57.5719,6.647 64.2094,41.4 66.8437,55.219 5.55,29.006 -2.7093,59.025 -23.2406,84.515 -4.2,5.213 -8.7937,10.097 -13.7437,14.644 -1.3688,12.347 -2.9344,21.413 -1.7063,23.278 41.4938,-30.525 64.4438,-78 55.3406,-125.615 -9.6093,-50.288 -48.8625,-69.141 -100.7625,-69.994"
         style="fill:#390075;fill-opacity:1;fill-rule:nonzero;stroke:none;stroke-width:0.09375"
         id="path2821" /><path
         d="m 1303.6875,38286.531 c -11.1656,0 -22.1062,4.153 -31.7718,14.447 -7.6594,8.166 -13.2844,17.203 -17.6625,26.859 14.0062,-6.487 26.9906,-9.187 38.9156,-9.187 29.9812,0 53.2406,17.119 69.0656,34.369 l 26.7375,-6.76 v 0 c -9.4969,-9.506 -16.7719,-18.187 -24.1594,-25.809 -15.6281,-17.325 -38.8125,-33.919 -61.125,-33.919"
         style="fill:#c3aac6;fill-opacity:1;fill-rule:nonzero;stroke:none;stroke-width:0.09375"
         id="path2823" /><path
         d="m 1222.7157,38314.019 c -34.9125,17.709 -44.6532,38.803 -46.4344,55.378 6.2719,-6.403 14.5312,-8.597 22.875,-8.597 10.5937,0 21.3469,3.525 28.3875,6.422 -7.4813,-16.463 -9.1125,-35.606 -4.8281,-53.203"
         style="fill:#c3aac6;fill-opacity:1;fill-rule:nonzero;stroke:none;stroke-width:0.09375"
         id="path2825" /><path
         d="m 1232.2782,38291.275 c -49.875,19.819 -80.9907,52.116 -71.1657,103.556 0.7969,4.2 1.8,8.241 3.075,12.235 0.6469,-2.494 1.1063,-5.41 1.3688,-8.794 1.0781,-13.988 5.1094,-23.128 10.725,-28.875 1.7812,-16.575 11.5219,-37.669 46.4344,-55.378 1.95,-8.044 5.1375,-15.75 9.5625,-22.744"
         style="fill:#390075;fill-opacity:1;fill-rule:nonzero;stroke:none;stroke-width:0.09375"
         id="path2827" /><path
         d="m 1356.3094,38267.547 c -19.575,0 -40.8375,2.456 -62.9344,6.684 -22.1531,4.228 -42.8718,9.806 -61.0968,17.044 -4.425,6.994 -7.6125,14.7 -9.5625,22.744 -4.2844,17.597 -2.6532,36.74 4.8281,53.203 4.9031,2.015 8.0156,3.731 8.0156,3.731 l -0.8062,-31.987 c 6.7031,-4.538 13.2093,-8.213 19.5,-11.129 4.3781,-9.656 10.0031,-18.693 17.6625,-26.859 9.6656,-10.294 20.6062,-14.447 31.7718,-14.447 22.3125,0 45.4969,16.594 61.125,33.919 7.3875,7.622 14.6625,16.303 24.1594,25.809 v 0 c 5.5313,-21.075 0.675,-43.125 -11.6906,-60.731 -3.1125,-4.434 -6.6938,-8.587 -10.7156,-12.375 -2.0907,-2.006 -4.2844,-3.862 -6.5532,-5.578 -1.2281,-0.02 -2.4562,-0.03 -3.7031,-0.03"
         style="fill:#390075;fill-opacity:1;fill-rule:nonzero;stroke:none;stroke-width:0.09375"
         id="path2829" /><path
         d="m 3141.8157,37464.278 -5.2312,-118.547 -10.65,-240.197 -2.5219,-57.487 c -2.3719,-53.41 -46.3406,-95.494 -99.8063,-95.494 h -247.6969 c -29.0625,0 -55.3031,12.441 -73.5656,32.344 -15.3937,16.762 -25.1344,38.747 -26.2406,63.15 l -2.5219,57.487 -10.6031,240.197 -5.2313,118.547 h 484.0688"
         style="fill:#ffffff;fill-opacity:1;fill-rule:nonzero;stroke:none;stroke-width:0.09375"
         id="path2831" /><path
         d="m 3172.8001,37464.259 h -529.725 c -17.7938,0 -31.4438,15.797 -28.8563,33.413 l 15.6375,106.312 c 2.1,14.316 14.3813,24.928 28.8563,24.928 h 498.45 c 14.475,0 26.7562,-10.612 28.8562,-24.928 l 15.6375,-106.312 c 2.5875,-17.616 -11.0625,-33.413 -28.8562,-33.413"
         style="fill:#0096f0;fill-opacity:1;fill-rule:nonzero;stroke:none;stroke-width:0.09375"
         id="path2833" /><path
         d="m 2894.0532,37481.209 h -133.5938 c -3.975,5.222 -6.1593,11.878 -5.6531,18.994 l 6.9,96.788 c 0.3938,5.625 2.4375,10.762 5.6156,14.971 h 111.9469 c 2.7469,-3.628 4.65,-7.95 5.3719,-12.712 l 14.8125,-96.797 c 1.2094,-7.903 -0.9844,-15.441 -5.4,-21.244"
         style="fill:#59bbf5;fill-opacity:1;fill-rule:nonzero;stroke:none;stroke-width:0.09375"
         id="path2835" /><path
         d="m 3172.8001,37481.209 h -30.1781 c -0.019,0 -0.037,0 -0.056,0 -0.2625,0.01 -0.5156,0.02 -0.7687,0.02 -0.2719,0 -0.5532,0 -0.825,-0.02 h -67.5938 c 2.2969,4.941 3.2438,10.613 2.3906,16.482 l -15.6468,106.293 c -0.4219,2.822 -1.2282,5.494 -2.3719,7.978 h 99.4125 c 6.0187,0 11.2125,-4.49 12.0844,-10.434 l 15.6375,-106.331 c 0.7125,-4.81 -1.4719,-8.175 -2.8407,-9.76 -1.3593,-1.575 -4.3781,-4.228 -9.2437,-4.228"
         style="fill:#1169cb;fill-opacity:1;fill-rule:nonzero;stroke:none;stroke-width:0.09375"
         id="path2837" /><path
         d="m 2654.9907,37481.209 h -11.9156 c -4.8657,0 -7.8844,2.644 -9.2438,4.228 -1.3687,1.585 -3.5531,4.95 -2.8406,9.769 l 15.6281,106.313 c 0.8813,5.953 6.075,10.443 12.0938,10.443 h 11.8968 c -1.1437,-2.484 -1.95,-5.156 -2.3531,-7.978 l -15.6469,-106.293 c -0.8531,-5.869 0.084,-11.541 2.3813,-16.482"
         style="fill:#b2dffa;fill-opacity:1;fill-rule:nonzero;stroke:none;stroke-width:0.09375"
         id="path2839" /><path
         d="m 2658.7126,37611.962 c -6.0188,0 -11.2125,-4.49 -12.0938,-10.443 l -15.6281,-106.313 c -0.7125,-4.819 1.4719,-8.184 2.8406,-9.769 1.3594,-1.584 4.3781,-4.228 9.2438,-4.228 h 529.725 c 4.8656,0 7.8844,2.653 9.2437,4.228 1.3688,1.585 3.5532,4.95 2.8407,9.76 l -15.6375,106.331 c -0.8719,5.944 -6.0657,10.434 -12.0844,10.434 h -498.45 m 514.0875,-164.653 h -529.725 c -13.4157,0 -26.1282,5.822 -34.8938,15.975 -8.775,10.144 -12.6844,23.578 -10.7344,36.853 l 15.6375,106.313 c 3.3094,22.472 22.9219,39.412 45.6282,39.412 h 498.45 c 22.7062,0 42.3187,-16.94 45.6281,-39.403 l 15.6281,-106.322 c 1.9594,-13.265 -1.95,-26.7 -10.7156,-36.853 -8.7656,-10.153 -21.4875,-15.975 -34.9031,-15.975"
         style="fill:#390075;fill-opacity:1;fill-rule:nonzero;stroke:none;stroke-width:0.09375"
         id="path2841" /><path
         d="m 3136.5845,37345.731 -10.65,-240.197 h -452.3532 l -10.6031,240.197 h 473.6063"
         style="fill:#390075;fill-opacity:1;fill-rule:nonzero;stroke:none;stroke-width:0.09375"
         id="path2843" /><path
         d="m 3079.9501,37693.075 h -344.025 c -21.675,0 -39.2438,-17.569 -39.2438,-39.244 v -24.919 h 422.5219 v 24.919 c 0,21.675 -17.5781,39.244 -39.2531,39.244"
         style="fill:#0096f0;fill-opacity:1;fill-rule:nonzero;stroke:none;stroke-width:0.09375"
         id="path2845" /><path
         d="m 3119.2032,37645.862 v 0 7.969 c 0,21.675 -17.5781,39.244 -39.2531,39.244 h -81.6188 c -0.3844,0 -0.7781,0.02 -1.1625,0.02 h 82.7625 c 21.6938,0 39.2719,-17.578 39.2719,-39.272 v -7.96"
         style="fill:#b286d5;fill-opacity:1;fill-rule:nonzero;stroke:none;stroke-width:0.09375"
         id="path2847" /><path
         d="m 3119.2032,37628.922 v 0 16.94 -16.94"
         style="fill:#390075;fill-opacity:1;fill-rule:nonzero;stroke:none;stroke-width:0.09375"
         id="path2849" /><path
         d="m 3119.2032,37628.922 h -82.7625 v 24.9 c 0,21.3 -16.95,38.634 -38.1094,39.253 h 81.6188 c 21.675,0 39.2531,-17.569 39.2531,-39.244 v -7.969 -16.94"
         style="fill:#1169cb;fill-opacity:1;fill-rule:nonzero;stroke:none;stroke-width:0.09375"
         id="path2851" /><path
         d="m 2704.4719,37677.306 c 7.1532,9.581 18.5813,15.788 31.4344,15.788 h 34.725 c -0.3937,0 -0.7781,-0.01 -1.1625,-0.02 h -33.5437 c -12.8719,0 -24.2907,-6.197 -31.4532,-15.769"
         style="fill:#f8ecff;fill-opacity:1;fill-rule:nonzero;stroke:none;stroke-width:0.09375"
         id="path2853" /><path
         d="m 2731.4063,37628.922 h -34.725 v 24.9 c 0,8.803 2.8969,16.94 7.7906,23.484 7.1625,9.572 18.5813,15.769 31.4532,15.769 h 33.5437 c -21.1594,-0.619 -38.0625,-17.953 -38.0625,-39.253 v -24.9"
         style="fill:#b2dffa;fill-opacity:1;fill-rule:nonzero;stroke:none;stroke-width:0.09375"
         id="path2855" /><path
         d="m 2713.6219,37645.853 h 388.6313 v 7.978 c 0,12.291 -10.0031,22.294 -22.3031,22.294 h -344.025 c -12.3,0 -22.3032,-10.003 -22.3032,-22.294 z m 405.5719,-33.891 h -422.5125 c -9.3656,0 -16.95,7.585 -16.95,16.95 v 24.919 c 0,30.985 25.2,56.194 56.1938,56.194 h 344.025 c 30.9937,0 56.1937,-25.209 56.1937,-56.194 v -24.919 c 0,-9.365 -7.5843,-16.95 -16.95,-16.95"
         style="fill:#390075;fill-opacity:1;fill-rule:nonzero;stroke:none;stroke-width:0.09375"
         id="path2857" /><path
         d="m 3023.6063,36935.603 h -247.6969 c -62.6812,0 -113.9625,49.059 -116.7375,111.694 l -18.3562,416.231 c -0.4125,9.356 6.8344,17.269 16.1812,17.681 9.3282,0.422 17.2688,-6.834 17.6813,-16.19 l 18.3562,-416.232 c 1.9688,-44.456 38.3719,-79.284 82.875,-79.284 h 247.6969 c 44.4938,0 80.9063,34.828 82.875,79.294 l 18.4032,416.222 c 0.4125,9.356 8.3625,16.612 17.6812,16.19 9.3469,-0.412 16.5938,-8.325 16.1813,-17.681 l -18.3938,-416.222 c -2.7844,-62.644 -54.0656,-111.703 -116.7469,-111.703"
         style="fill:#390075;fill-opacity:1;fill-rule:nonzero;stroke:none;stroke-width:0.09375"
         id="path2859" /><path
         d="m 2935.8188,37289.303 v 20.447 h -72.075 v -20.447 h -20.4375 v -46.012 h 27.5813 v 38.868 h 57.7875 v -58.678 h -26.9532 v -19.94 h -20.4375 v -34.097 h 27.5813 v 26.456 h 26.9531 v 20.437 h 20.4375 v 72.966 h -20.4375"
         style="fill:#ffffff;fill-opacity:1;fill-rule:nonzero;stroke:none;stroke-width:0.09375"
         id="path2861" /><path
         d="m 2881.2844,37128.466 h 27.5812 v 27.581 h -27.5812 z"
         style="fill:#ffffff;fill-opacity:1;fill-rule:nonzero;stroke:none;stroke-width:0.09375"
         id="path2863" /><path
         d="m 3023.6063,36969.503 h -161.7375 c 114.5906,17.522 140.8313,108.253 146.2219,136.031 h 100.9031 l -2.5125,-56.737 c -1.9687,-44.466 -38.3812,-79.294 -82.875,-79.294 m 96,376.228 h -100.6031 l 1.3688,32.991 c 0.8906,21.544 -15.2344,40.022 -36.7032,42.047 l -281.1937,26.54 h 421.6312 l -4.5,-101.578"
         style="fill:#c3b2d5;fill-opacity:1;fill-rule:nonzero;stroke:none;stroke-width:0.09375"
         id="path2865" /><path
         d="m 3124.1063,37447.309 h -421.6312 l -27.1313,2.56 -0.01,0.375 348.2251,6.037 0.3375,7.997 h 100.9593 l -0.75,-16.969"
         style="fill:#390075;fill-opacity:1;fill-rule:nonzero;stroke:none;stroke-width:0.09375"
         id="path2867" /><path
         d="m 3108.9938,37105.534 h -100.9031 c 0.9938,5.11 1.2844,8.082 1.2844,8.082 l 9.6281,232.115 h 100.6031 l -10.6125,-240.197"
         style="fill:#390075;fill-opacity:1;fill-rule:nonzero;stroke:none;stroke-width:0.09375"
         id="path2869" /><path
         d="m 2776.6032,36969.503 h -0.6938 c -9.2718,0 -18.1875,1.509 -26.5125,4.303 9.4125,-1.781 18.4594,-3.206 27.2063,-4.303"
         style="fill:#c3b2d5;fill-opacity:1;fill-rule:nonzero;stroke:none;stroke-width:0.09375"
         id="path2871" /><path
         d="m 3023.6063,36952.553 h -247.6969 c -29.0625,0 -55.3031,12.441 -73.5656,32.344 16.5563,-4.622 32.2313,-8.297 47.0531,-11.091 8.325,-2.794 17.2407,-4.303 26.5125,-4.303 h 0.6938 c 15.9469,-2.016 30.825,-2.953 44.6719,-2.953 14.6343,0 28.1437,1.041 40.5937,2.953 h 161.7375 c 44.4938,0 80.9063,34.828 82.875,79.294 l 2.5125,56.737 10.6125,240.197 4.5,101.578 0.75,16.969 h 16.9594 l -5.2312,-118.547 -10.65,-240.197 -2.5219,-57.487 c -2.3719,-53.41 -46.3406,-95.494 -99.8063,-95.494 m -348.2625,497.316 -3.3094,0.318 3.3,0.06 0.01,-0.375"
         style="fill:#390075;fill-opacity:1;fill-rule:nonzero;stroke:none;stroke-width:0.09375"
         id="path2873" /><path
         d="m 2905.1157,37345.731 h -155.7094 c 3.075,21.188 21.3094,37.463 43.3594,37.463 h 68.9906 c 22.0406,0 40.2844,-16.275 43.3594,-37.463"
         style="fill:#ffffff;fill-opacity:1;fill-rule:nonzero;stroke:none;stroke-width:0.09375"
         id="path2875" /><path
         d="m 2861.7563,37147.094 h -68.9906 c -24.2063,0 -43.8188,19.622 -43.8188,43.818 v 148.463 c 0,2.156 0.1594,4.275 0.4594,6.356 h 155.7094 c 0.3,-2.081 0.4594,-4.2 0.4594,-6.356 v -29.625 h -41.8313 v -20.447 h -20.4375 v -46.012 h 27.5813 v 38.868 h 34.6875 v -58.678 h -3.8532 v -19.94 h -20.4375 v -34.097 h 18.675 c -2.9437,-5.222 -6.9281,-9.788 -11.6625,-13.397 h -7.0125 v -4.369 c -5.8781,-2.934 -12.5156,-4.584 -19.5281,-4.584"
         style="fill:#7e59a5;fill-opacity:1;fill-rule:nonzero;stroke:none;stroke-width:0.09375"
         id="path2877" /><path
         d="m 2899.9594,37169.444 h -18.675 v 34.097 h 20.4375 v 19.94 h 3.8532 v -32.569 c 0,-7.8 -2.0438,-15.121 -5.6157,-21.468 m -29.0718,73.847 h -27.5813 v 46.012 h 20.4375 v 20.447 h 41.8313 v -27.591 h -34.6875 v -38.868"
         style="fill:#ffffff;fill-opacity:1;fill-rule:nonzero;stroke:none;stroke-width:0.09375"
         id="path2879" /><path
         d="m 2881.2844,37151.678 v 4.369 h 7.0125 c -2.1843,-1.669 -4.5375,-3.131 -7.0125,-4.369"
         style="fill:#ffffff;fill-opacity:1;fill-rule:nonzero;stroke:none;stroke-width:0.09375"
         id="path2881" /><path
         d="m 2836.1251,36935.594 h -200.9719 c -9.3563,0 -16.95,7.593 -16.95,16.95 0,9.365 7.5937,16.95 16.95,16.95 h 200.9719 c 9.3656,0 16.95,-7.585 16.95,-16.95 0,-9.357 -7.5844,-16.95 -16.95,-16.95"
         style="fill:#390075;fill-opacity:1;fill-rule:nonzero;stroke:none;stroke-width:0.09375"
         id="path2883" /><path
         d="m 1751.4938,38652.447 c -2.6813,0 -5.55,0.15 -8.5125,0.478 -13.9969,1.528 -24.9656,6.281 -24.4969,10.603 0.375,3.413 7.7438,5.541 17.7,5.541 2.6813,0 5.5406,-0.15 8.5125,-0.478 13.9969,-1.529 24.9656,-6.282 24.4875,-10.604 -0.3656,-3.412 -7.7344,-5.54 -17.6906,-5.54"
         style="fill:#c3b2d5;fill-opacity:1;fill-rule:nonzero;stroke:none;stroke-width:0.09375"
         id="path2885" /><path
         d="m 1641.5719,38732.397 c -7.8937,-50.822 -50.025,-86.475 -94.0875,-79.622 -44.0719,6.844 -73.3875,53.597 -65.4844,104.428 7.8938,50.822 50.025,86.466 94.0875,79.622 44.0625,-6.853 73.3875,-53.606 65.4844,-104.428"
         style="fill:#390075;fill-opacity:1;fill-rule:nonzero;stroke:none;stroke-width:0.09375"
         id="path2887" /><path
         d="m 1613.625,38763.991 c -2.8218,-18.169 -16.7625,-31.088 -31.125,-28.847 -14.3718,2.231 -23.7281,18.768 -20.9062,36.928 2.8219,18.169 16.7625,31.078 31.125,28.847 14.3719,-2.232 23.7281,-18.769 20.9062,-36.928"
         style="fill:#ffffff;fill-opacity:1;fill-rule:nonzero;stroke:none;stroke-width:0.09375"
         id="path2889" /><path
         d="m 1525.2188,38696.059 c -0.4969,0 -0.9844,0.04 -1.4813,0.113 -7.9593,1.237 -12.8625,12.206 -10.95,24.497 1.7907,11.54 8.9438,20.137 16.3875,20.137 0.4969,0 0.9844,-0.04 1.4813,-0.112 7.9594,-1.238 12.8625,-12.207 10.95,-24.497 -1.7906,-11.531 -8.9438,-20.138 -16.3875,-20.138"
         style="fill:#613391;fill-opacity:1;fill-rule:nonzero;stroke:none;stroke-width:0.09375"
         id="path2891" /><path
         id="rect4046"
         style="fill:#613391;fill-rule:evenodd;stroke:#613391;stroke-width:4.19539;stroke-opacity:1"
         transform="matrix(0.95596456,0.29348213,0.29348213,-0.95596456,0,0)"
         d="m 12783.749,-35445.18 94.081,12.832 20.451,69.84 -90.254,-1.049 z"
         sodipodi:nodetypes="ccccc" /><g
         id="g11370"
         transform="matrix(63.697914,0,0,-62.771949,1560.3957,44096.435)"><path
           id="rect234"
           style="fill:#0096f0;fill-opacity:1;stroke:#390075;stroke-width:0.175989;stroke-opacity:1"
           d="M -5.1207333,95.067482 H 4.8491611 V 106.50545 H -5.1207333 Z" /><g
           aria-label="CSS IS AWESOME"
           transform="matrix(0.26458333,0,0,0.26458333,-65.872278,-3.102012)"
           id="text1676"
           style="white-space:pre;shape-inside:url(#rect1678);stroke:#000000;stroke-width:0.533333"><path
             d="m 240.39844,373.82812 v 1.24805 q -0.59766,-0.55664 -1.27735,-0.83203 -0.67382,-0.27539 -1.43554,-0.27539 -1.5,0 -2.29688,0.91992 -0.79687,0.91406 -0.79687,2.64844 0,1.72851 0.79687,2.64844 0.79688,0.91406 2.29688,0.91406 0.76172,0 1.43554,-0.27539 0.67969,-0.27539 1.27735,-0.83203 v 1.23633 q -0.6211,0.42187 -1.31836,0.63281 -0.69141,0.21094 -1.46485,0.21094 -1.98632,0 -3.1289,-1.2129 -1.14258,-1.21875 -1.14258,-3.32226 0,-2.10938 1.14258,-3.32227 1.14258,-1.21875 3.1289,-1.21875 0.78516,0 1.47657,0.21094 0.69726,0.20508 1.30664,0.62109 z"
             id="path11235" /><path
             d="m 247.4707,373.44141 v 1.15429 q -0.67383,-0.32226 -1.27148,-0.48047 -0.59766,-0.1582 -1.1543,-0.1582 -0.9668,0 -1.49414,0.375 -0.52148,0.375 -0.52148,1.06641 0,0.58008 0.3457,0.8789 0.35156,0.29297 1.32422,0.47461 l 0.71484,0.14649 q 1.32422,0.25195 1.95117,0.89062 0.63282,0.63281 0.63282,1.69922 0,1.27149 -0.85547,1.92774 -0.84961,0.65625 -2.4961,0.65625 -0.62109,0 -1.32421,-0.14063 -0.69727,-0.14062 -1.44727,-0.41602 v -1.21875 q 0.7207,0.4043 1.41211,0.60938 0.69141,0.20508 1.35937,0.20508 1.01368,0 1.56446,-0.39844 0.55078,-0.39844 0.55078,-1.13672 0,-0.64453 -0.39844,-1.00781 -0.39258,-0.36328 -1.29492,-0.54492 l -0.7207,-0.14063 q -1.32422,-0.26367 -1.91602,-0.82617 -0.5918,-0.5625 -0.5918,-1.56445 0,-1.16016 0.81446,-1.82813 0.82031,-0.66797 2.25586,-0.66797 0.61523,0 1.2539,0.11133 0.63867,0.11133 1.30664,0.33399 z"
             id="path11237" /><path
             d="m 255.08789,373.44141 v 1.15429 q -0.67383,-0.32226 -1.27148,-0.48047 -0.59766,-0.1582 -1.1543,-0.1582 -0.9668,0 -1.49414,0.375 -0.52149,0.375 -0.52149,1.06641 0,0.58008 0.34571,0.8789 0.35156,0.29297 1.32422,0.47461 l 0.71484,0.14649 q 1.32422,0.25195 1.95117,0.89062 0.63281,0.63281 0.63281,1.69922 0,1.27149 -0.85546,1.92774 -0.84961,0.65625 -2.4961,0.65625 -0.62109,0 -1.32422,-0.14063 -0.69726,-0.14062 -1.44726,-0.41602 v -1.21875 q 0.7207,0.4043 1.41211,0.60938 0.6914,0.20508 1.35937,0.20508 1.01367,0 1.56445,-0.39844 0.55079,-0.39844 0.55079,-1.13672 0,-0.64453 -0.39844,-1.00781 -0.39258,-0.36328 -1.29492,-0.54492 l -0.72071,-0.14063 q -1.32422,-0.26367 -1.91601,-0.82617 -0.5918,-0.5625 -0.5918,-1.56445 0,-1.16016 0.81445,-1.82813 0.82032,-0.66797 2.25586,-0.66797 0.61524,0 1.25391,0.11133 0.63867,0.11133 1.30664,0.33399 z"
             id="path11239" /><path
             d="m 233.84766,388.1543 h 1.18359 v 8.74804 h -1.18359 z"
             id="path11241" /><path
             d="m 242.63086,388.44141 v 1.15429 q -0.67383,-0.32226 -1.27149,-0.48047 -0.59765,-0.1582 -1.15429,-0.1582 -0.9668,0 -1.49414,0.375 -0.52149,0.375 -0.52149,1.06641 0,0.58008 0.34571,0.8789 0.35156,0.29297 1.32421,0.47461 l 0.71485,0.14649 q 1.32422,0.25195 1.95117,0.89062 0.63281,0.63281 0.63281,1.69922 0,1.27149 -0.85547,1.92774 -0.84961,0.65625 -2.49609,0.65625 -0.62109,0 -1.32422,-0.14063 -0.69726,-0.14062 -1.44726,-0.41602 v -1.21875 q 0.7207,0.4043 1.41211,0.60938 0.6914,0.20508 1.35937,0.20508 1.01367,0 1.56445,-0.39844 0.55078,-0.39844 0.55078,-1.13672 0,-0.64453 -0.39843,-1.00781 -0.39258,-0.36328 -1.29492,-0.54492 l -0.72071,-0.14063 q -1.32422,-0.26367 -1.91601,-0.82617 Q 237,391.49414 237,390.49219 q 0,-1.16016 0.81445,-1.82813 0.82032,-0.66797 2.25586,-0.66797 0.61524,0 1.25391,0.11133 0.63867,0.11133 1.30664,0.33399 z"
             id="path11243" /><path
             d="m 236.77148,404.32031 -1.60546,4.35352 h 3.21679 z m -0.66796,-1.16601 h 1.34179 l 3.33399,8.74804 h -1.23047 l -0.79688,-2.24414 h -3.94336 l -0.79687,2.24414 h -1.24805 z"
             id="path11245" /><path
             d="m 240.62109,403.1543 h 1.19532 l 1.83984,7.39453 1.83398,-7.39453 h 1.33008 l 1.83985,7.39453 1.83398,-7.39453 h 1.20117 l -2.19726,8.74804 h -1.48828 l -1.84571,-7.59375 -1.86328,7.59375 h -1.48828 z"
             id="path11247" /><path
             d="m 253.26562,403.1543 h 5.53125 v 0.99609 h -4.34765 v 2.58984 h 4.16601 v 0.9961 h -4.16601 v 3.16992 h 4.45312 v 0.99609 h -5.63672 z"
             id="path11249" /><path
             d="m 266.0918,403.44141 v 1.15429 q -0.67383,-0.32226 -1.27149,-0.48047 -0.59765,-0.1582 -1.15429,-0.1582 -0.9668,0 -1.49415,0.375 -0.52148,0.375 -0.52148,1.06641 0,0.58008 0.3457,0.8789 0.35157,0.29297 1.32422,0.47461 l 0.71485,0.14649 q 1.32421,0.25195 1.95117,0.89062 0.63281,0.63281 0.63281,1.69922 0,1.27149 -0.85547,1.92774 -0.84961,0.65625 -2.49609,0.65625 -0.6211,0 -1.32422,-0.14063 -0.69727,-0.14062 -1.44727,-0.41602 v -1.21875 q 0.72071,0.4043 1.41211,0.60938 0.69141,0.20508 1.35938,0.20508 1.01367,0 1.56445,-0.39844 0.55078,-0.39844 0.55078,-1.13672 0,-0.64453 -0.39844,-1.00781 -0.39257,-0.36328 -1.29492,-0.54492 l -0.7207,-0.14063 q -1.32422,-0.26367 -1.91602,-0.82617 -0.59179,-0.5625 -0.59179,-1.56445 0,-1.16016 0.81445,-1.82813 0.82031,-0.66797 2.25586,-0.66797 0.61523,0 1.25391,0.11133 0.63867,0.11133 1.30664,0.33399 z"
             id="path11251" /><path
             d="m 272.01562,403.95703 q -1.28906,0 -2.05078,0.96094 -0.75586,0.96094 -0.75586,2.61914 0,1.65234 0.75586,2.61328 0.76172,0.96094 2.05078,0.96094 1.28907,0 2.03907,-0.96094 0.75586,-0.96094 0.75586,-2.61328 0,-1.6582 -0.75586,-2.61914 -0.75,-0.96094 -2.03907,-0.96094 z m 0,-0.96094 q 1.83985,0 2.94141,1.23633 1.10156,1.23047 1.10156,3.30469 0,2.06836 -1.10156,3.30469 -1.10156,1.23047 -2.94141,1.23047 -1.8457,0 -2.95312,-1.23047 -1.10156,-1.23047 -1.10156,-3.30469 0,-2.07422 1.10156,-3.30469 1.10742,-1.23633 2.95312,-1.23633 z"
             id="path11253" /><path
             d="m 277.91016,403.1543 h 1.76367 l 2.23242,5.95312 2.24414,-5.95312 h 1.76367 v 8.74804 h -1.15429 v -7.68164 l -2.25586,6 h -1.18946 l -2.25586,-6 v 7.68164 h -1.14843 z"
             id="path11255" /><path
             d="m 288.26367,403.1543 h 5.53125 v 0.99609 h -4.34765 v 2.58984 h 4.16601 v 0.9961 h -4.16601 v 3.16992 h 4.45312 v 0.99609 h -5.63672 z"
             id="path11257" /></g></g></g></g></svg>
