<?xml version="1.0" encoding="UTF-8" standalone="no"?>
<!-- Created with Inkscape (http://www.inkscape.org/) -->

<svg
   width="72.308708mm"
   height="91.20446mm"
   viewBox="0 0 72.308708 91.20446"
   version="1.1"
   id="svg5"
   xml:space="preserve"
   xmlns:inkscape="http://www.inkscape.org/namespaces/inkscape"
   xmlns:sodipodi="http://sodipodi.sourceforge.net/DTD/sodipodi-0.dtd"
   xmlns="http://www.w3.org/2000/svg"
   xmlns:svg="http://www.w3.org/2000/svg"><sodipodi:namedview
     id="namedview7"
     pagecolor="#ffffff"
     bordercolor="#000000"
     borderopacity="0.25"
     inkscape:showpageshadow="2"
     inkscape:pageopacity="0.0"
     inkscape:pagecheckerboard="0"
     inkscape:deskcolor="#d1d1d1"
     inkscape:document-units="mm"
     showgrid="false" /><defs
     id="defs2" /><g
     inkscape:label="Layer 1"
     inkscape:groupmode="layer"
     id="layer1"
     transform="translate(-27.67786,-51.197)"><g
       id="g1535"
       transform="matrix(0.00339643,0,0,-0.00326241,-4.0908678,160.84582)"><g
         id="g1495"><g
           id="g1382"><path
             d="m 27885.9,7014.5 c -572.7,-283 -1184,-480.8 -1811.4,-599.5 -3868,-730.7 -7783.4,-777.1 -11750,-74.4 -134.3,24.3 -269.1,48.6 -403.8,74.4 -445.7,84.5 -883,209.6 -1304.3,376 l -1.6,0.4 h 0.6 c -170.4,67.3 -338.4,140.7 -503,222 -2922.52,1443.7 -3147.65,4058.5 -1702.4,4898.6 -1092.58,3599.5 -362,6858.2 3318.1,9565.9 h 12540.5 c 415.7,-306.2 794.2,-619.1 1136,-938.7 2686.1,-2510 3151.3,-5434.6 2182.1,-8627.2 1445.3,-840.1 1220.1,-3453.8 -1700.8,-4897.5"
             style="fill:#7d65ef;fill-opacity:1;fill-rule:nonzero;stroke:none"
             id="path437" /><path
             d="m 13226.8,13506.3 c -39.9,414.5 -192.2,800.2 -516.3,1141.8 117,64.8 237.1,122.6 359,172.4 138.4,55.1 279.7,97.1 420.6,125.9 0.2,0.1 0.4,0.1 0.7,0.1 1.7,-32 6.6,-64.4 9.7,-96.6 4.8,-35.9 5.9,-71.9 15.5,-107.7 l 24.3,-107.3 c 6.5,-36 22.8,-70.2 34,-105.3 13.7,-34.4 22.4,-70.8 40.8,-103.3 l 50.5,-99.5 c 15.3,-34.1 39.2,-62.8 59.2,-94 21.5,-30 40.4,-62.6 64.6,-90.1 l 72.9,-82.5 c 2.5,-2.7 4.9,-5.4 7.4,-8.2 -18,-8.1 -35.9,-16.6 -53.6,-25.5 -221.3,-112 -413.5,-277.1 -558.3,-476.1 -10.6,-14.5 -20.9,-29.2 -31,-44.1 m -550.1,1382.6 c 172,693.6 82.4,1374.2 -302.5,2040.2 228.1,-39.1 450.9,-100.5 660.9,-185.3 210.6,-87.1 407.7,-200 574.2,-343.3 61.3,-51.1 116.8,-107.8 168.4,-167.1 -93.9,-207.3 -166.2,-426.6 -220.6,-654.4 l -22.8,-99.6 -17.1,-102 c -4.5,-31.2 -11,-61.6 -14.3,-93.1 -31.3,-8.1 -62.3,-17 -92.9,-26.5 -159.7,-52.9 -311.3,-119.3 -454.7,-197.1 -96,-53.3 -188.9,-110.7 -278.6,-171.8 m 1262,1660.4 c -41.9,36.8 -85.4,71.6 -130.5,103.8 -210,153.7 -443.7,263 -682.3,340.6 -23.6,7.5 -47.3,14.7 -71,21.6 627.6,469.7 907.2,1243.4 1028.2,1752.3 179.9,-109.6 367.7,-213.9 563.6,-312.8 152.2,-76.9 309,-150.3 470.2,-220.2 -319.7,-390.3 -625.4,-793.8 -901.7,-1222.6 -96,-150.9 -189.2,-304.5 -276.5,-462.7"
             style="fill:#5747ca;fill-opacity:1;fill-rule:nonzero;stroke:none"
             id="path439" /><path
             d="m 10085.5,9034.5 c -217.64,387.7 -339.84,795 -353.77,1205.8 -22.36,660.4 259.32,1210.3 772.87,1508.8 75.5,43.9 111,134 85.6,217.7 -984.9,3245 -374,5937.2 1869.4,8182.5 116.5,-140.9 240.6,-277.1 372.3,-408.7 C 10330.2,17276 9914,14421.2 10857.2,11312.5 c -736.8,-428.3 -1039.19,-1317.7 -771.7,-2278"
             style="fill:#c4baf8;fill-opacity:1;fill-rule:nonzero;stroke:none"
             id="path441" /><path
             d="m 19988.9,6030.6 c -2018.1,0 -4034.1,189.8 -6032.9,569.5 -227.3,43.2 -450.1,96.5 -667.7,159.7 752.3,-32 1484.6,-51.5 2187.6,-51.5 4216.3,0 7352.7,703 7071,3628.3 h 238.7 c 202.5,-70.7 410.2,-127.5 624,-165.5 155.4,-27.4 313.1,-41.4 470.7,-41.4 74.5,0 148.9,3.1 223,9.5 231.1,18.2 459.2,67.3 678,141.9 109.1,38 216.6,81.2 320.4,131.9 39.5,19.5 77.8,40.2 116.3,60.6 57.6,-37.1 114.8,-76.4 169.1,-120.3 114.7,-90.8 222.6,-193.1 320.2,-305.8 25,-27.7 47.1,-57.7 71,-86.6 23.9,-28.8 46.9,-58.5 67.8,-89.6 l 65.1,-92.2 59.1,-96.5 c 41.8,-63.4 73,-132.6 109.6,-199.5 34,-68.1 62.4,-139 94.2,-208.8 l 2.9,-6.4 c 12.7,-27.9 40.6,-45.3 70.4,-45.3 7.7,0 15.6,1.2 23.3,3.6 40.7,13 63.2,56.4 50.3,97.1 -24.2,76.5 -45.5,154.6 -72.8,230.7 -30,75 -54.9,152.8 -91.2,225.7 l -51.3,111.2 -58.4,107.9 c -18.8,36.4 -39.9,71.6 -62.2,106.2 -22.2,34.5 -42.9,70.4 -66.5,104.1 -92.7,136.6 -199.1,265.1 -317.3,384 -22.1,22.6 -44.9,44.6 -68.3,66.1 146.8,96.7 286.1,206 416.8,325.6 169.5,154.4 325,328.1 451.7,525.2 127.5,195.9 229.7,412.9 288.1,646.1 58.5,232.4 73.9,481.4 29.7,721.7 -16.3,73.5 -32.7,147.4 -54.7,220 224.8,-245.9 480.2,-379.6 771.8,-379.6 101.9,0 208.3,16.4 319.3,49.9 437.4,132.2 714.6,563.9 664,1018.3 l -88.2,790.5 c 194.6,832.4 305.6,1664.2 -129.1,2490.9 -237.2,805.1 -549.5,1098.1 -821,1098.1 -379.8,0 -679.6,-573.6 -581.9,-1121.2 -59.8,-15.2 -119.3,-32.2 -178.5,-51 -238.6,-77.6 -472.3,-186.9 -682.3,-340.6 -56.5,-40.4 -110.4,-84.8 -162,-132.1 -85.6,172.5 -177.7,340.5 -273.8,505.3 -221.5,376.8 -462,738.3 -710.4,1092.5 263.3,104.5 515.5,217.7 756.4,339.7 748.8,379.1 1381.4,837 1892.8,1369.1 2192.9,-2382 2527,-5111.1 1628.7,-8070.5 1214.1,-705.7 1249.4,-2663.3 -502.2,-4127.2 -234.5,-160.8 -490.4,-310.4 -765.9,-446.6 -542.7,-268.2 -1135.9,-464.4 -1763,-582.9 -2010.2,-379.9 -4031.4,-569.8 -6050.4,-569.8 m 6463.1,7496.2 c -5.3,7.6 -10.8,15.3 -16.3,22.8 -144.7,199 -336.7,364.3 -558,476.3 -17.8,9 -35.9,17.6 -54.1,25.9 2.6,2.8 5.1,5.7 7.7,8.4 l 72.8,82.5 c 24.3,27.5 43.1,60.1 64.7,90.1 20,31.2 43.8,59.9 59.2,94 l 50.5,99.5 c 18.3,32.5 27,68.9 40.7,103.3 11.3,35.1 27.5,69.3 34.1,105.3 l 24.2,107.3 c 9.6,35.8 10.8,71.8 15.6,107.7 3.3,35.2 8.9,70.6 10.1,105.5 17.8,-2.7 35.7,-5.7 53.6,-9 140.9,-28.8 282.2,-70.8 420.6,-125.9 109.1,-44.6 216.7,-95.5 322,-152.2 -402.6,-260.6 -553.8,-658.3 -547.4,-1141.5 m 509.5,1433.3 c -55.5,35 -112.1,68.5 -169.9,100.6 -143.4,77.8 -295,144.2 -454.7,197.1 -48.5,15.1 -97.8,28.4 -147.8,40 -3.5,26.7 -8.9,52.9 -12.7,79.6 l -17.2,102 -23.3,99.5 c -51,211.9 -122.8,413.8 -205.4,608.7 62.4,75.9 130.2,148.7 207.1,212.9 166.5,143.3 363.6,256.2 574.2,343.3 21.2,8.6 42.5,16.9 64,25 -210.3,-673.4 -123.1,-1269.8 185.7,-1808.7"
             style="fill:#5747ca;fill-opacity:1;fill-rule:nonzero;stroke:none"
             id="path443" /><path
             d="m 14715,10573.8 c -2.2,-0.5 -11.1,-4.5 -17.7,-7.4 -6.9,-2.7 -14.7,-6.9 -22.2,-10.5 -15.1,-6.9 -30.4,-15.1 -45.8,-23.5 -30.8,-15.9 -61.4,-35 -91.9,-53.4 -60.5,-38.7 -120.7,-79.6 -177.6,-125.7 -114.7,-90.8 -222.6,-193.1 -320.2,-305.8 -25,-27.7 -47.1,-57.7 -71,-86.6 -23.9,-28.8 -46.9,-58.5 -67.8,-89.6 l -65.1,-92.2 -59.1,-96.5 c -41.8,-63.4 -73,-132.6 -109.6,-199.5 -34,-68.1 -62.4,-139 -94.2,-208.8 l -2.9,-6.4 c -17.7,-38.9 -63.5,-56 -102.4,-38.3 -36,16.3 -53.3,56.9 -41.7,93.7 24.3,76.5 45.5,154.6 72.9,230.7 29.9,75 54.9,152.8 91.2,225.7 l 51.3,111.2 58.4,107.9 c 18.8,36.4 39.9,71.6 62.2,106.2 22.2,34.5 42.9,70.4 66.5,104.1 92.7,136.6 199.1,265.1 317.3,384 58.7,59.9 122.3,115.6 188.1,169.6 33.8,26.4 67.1,53 103.3,77.7 17.8,12.6 35.7,25.1 55,37.1 9.6,6.1 18.4,12.1 29.1,18.2 10.7,6.3 19.1,11.7 34.5,19.7 l 35.1,18.1 c 94.3,48.9 210.4,12 259.2,-82.3 48.9,-94.3 12.1,-210.4 -82.3,-259.3 -16.7,-8.6 -35,-14.7 -52.6,-18.1"
             style="fill:#000073;fill-opacity:1;fill-rule:nonzero;stroke:none"
             id="path445" /><path
             d="m 11659.6,17138.4 c 248.5,25 491,22 737,0.2 245.1,-22.5 489.9,-69 729.3,-144.9 238.6,-77.6 472.3,-186.9 682.3,-340.6 105.8,-75.5 202.2,-165.2 292.2,-261.4 89.8,-96.8 166.2,-205.7 235.8,-318.6 54.8,-88.7 27.2,-205 -61.5,-259.7 -88.7,-54.7 -204.9,-27.2 -259.7,61.5 -2.3,3.8 -4.5,7.7 -6.5,11.6 l -3.6,6.8 c -49.2,94.7 -103.4,187.7 -170.5,272.2 -67.4,83.9 -140.8,164.6 -225.1,235 -166.5,143.3 -363.6,256.2 -574.2,343.3 -211.5,85.4 -436,147.1 -665.8,186.1 -228.7,38.8 -466.8,59.4 -696.3,54.2 l -3.9,-0.1 c -42.7,-1 -78.2,32.8 -79.1,75.6 -1,40.6 29.9,74.7 69.6,78.8"
             style="fill:#000073;fill-opacity:1;fill-rule:nonzero;stroke:none"
             id="path447" /><path
             d="m 12182,14485.6 c 116.7,114.9 237.8,215.4 366.7,312.1 128.6,95.8 264.1,183.8 406.6,263 143.4,77.8 295,144.2 454.7,197.1 160.9,50.2 331.2,81.1 507.9,88.9 104.2,4.7 192.5,-76.2 197.1,-180.4 4.6,-104.3 -76.1,-192.5 -180.4,-197.1 -7.2,-0.3 -14.4,-0.2 -21.5,0.3 l -6.2,0.4 c -135,9.5 -275.4,2.6 -416.8,-23.5 -140.9,-28.8 -282.2,-70.8 -420.6,-125.9 -137.9,-56.4 -273.5,-122.9 -404.9,-198.4 -130.6,-75.4 -260.8,-160.1 -378.1,-250.9 l -2.7,-2.1 c -33.8,-26.2 -82.5,-20 -108.7,13.8 -24.2,31.4 -20.7,75.5 6.9,102.7"
             style="fill:#000073;fill-opacity:1;fill-rule:nonzero;stroke:none"
             id="path449" /><path
             d="m 25191.3,10915.4 c 15.4,-8 23.8,-13.4 34.5,-19.7 10.6,-6.1 19.5,-12.1 29.1,-18.2 19.3,-12 37.3,-24.5 55,-37.1 36.3,-24.7 69.5,-51.3 103.2,-77.7 65.9,-54 129.5,-109.7 188.2,-169.6 118.2,-118.9 224.6,-247.4 317.3,-384 23.6,-33.7 44.3,-69.6 66.5,-104.1 22.3,-34.6 43.4,-69.8 62.2,-106.2 l 58.4,-107.9 51.3,-111.2 c 36.3,-72.9 61.2,-150.7 91.2,-225.7 27.3,-76.1 48.6,-154.2 72.8,-230.7 12.9,-40.7 -9.6,-84.1 -50.3,-97.1 -37.7,-11.9 -77.7,6.6 -93.7,41.7 l -2.9,6.4 c -31.8,69.8 -60.2,140.7 -94.2,208.8 -36.6,66.9 -67.8,136.1 -109.6,199.5 l -59.1,96.5 -65.1,92.2 c -20.9,31.1 -43.9,60.8 -67.8,89.6 -23.9,28.9 -46,58.9 -71,86.6 -97.6,112.7 -205.5,215 -320.2,305.8 -56.9,46.1 -117.1,87 -177.6,125.7 -30.5,18.4 -61.1,37.5 -91.9,53.4 -15.4,8.4 -30.7,16.6 -45.8,23.5 -7.5,3.6 -15.3,7.8 -22.2,10.5 -6.6,2.9 -15.5,6.9 -17.7,7.4 -104.4,19.7 -172.9,120.4 -153.1,224.8 19.8,104.4 120.4,172.9 224.8,153.1 18.5,-3.5 35.9,-9.5 51.8,-17.7 l 35.9,-18.6"
             style="fill:#000073;fill-opacity:1;fill-rule:nonzero;stroke:none"
             id="path451" /><path
             d="m 28073.9,16984.1 c -229.5,5.2 -467.6,-15.4 -696.3,-54.2 -229.8,-39 -454.3,-100.7 -665.8,-186.1 -210.6,-87.1 -407.7,-200 -574.2,-343.3 -84.3,-70.4 -157.7,-151.1 -225.1,-235 -67.1,-84.5 -121.2,-177.5 -170.5,-272.2 l -3.3,-6.4 c -48.2,-92.5 -162.1,-128.4 -254.6,-80.3 -92.4,48.1 -128.4,162 -80.3,254.5 2.1,4 4.5,8.2 6.9,12 69.6,112.9 146,221.8 235.8,318.6 90,96.2 186.4,185.9 292.2,261.4 210,153.7 443.7,263 682.3,340.6 239.4,75.9 484.2,122.4 729.3,144.9 246,21.8 488.5,24.8 737,-0.2 42.6,-4.3 73.6,-42.2 69.3,-84.8 -4.1,-40.4 -38.6,-70.5 -78.5,-69.6 l -4.2,0.1"
             style="fill:#000073;fill-opacity:1;fill-rule:nonzero;stroke:none"
             id="path453" /><path
             d="m 27460.4,14371.2 c -117.3,90.8 -247.5,175.5 -378.1,250.9 -131.4,75.5 -267,142 -404.9,198.4 -138.4,55.1 -279.7,97.1 -420.6,125.9 -141.4,26.1 -281.8,33 -416.8,23.5 l -6,-0.4 c -104.1,-7.3 -194.5,71.1 -201.8,175.1 -7.4,104.1 71,194.5 175.1,201.8 7.3,0.6 14.6,0.6 21.7,0.3 176.7,-7.8 347,-38.7 507.9,-88.9 159.7,-52.9 311.3,-119.3 454.7,-197.1 142.5,-79.2 278,-167.2 406.6,-263 128.9,-96.7 250,-197.2 366.7,-312.1 30.4,-30 30.8,-79.1 0.8,-109.6 -27.8,-28.3 -72,-30.6 -102.6,-6.9 l -2.7,2.1"
             style="fill:#000073;fill-opacity:1;fill-rule:nonzero;stroke:none"
             id="path455" /><path
             d="m 19989,5653.6 c -2042,-0.1 -4080.8,192 -6103.3,576.2 -659.9,125.3 -1284.5,332.1 -1856.5,614.7 -1630,805.1 -2629.7,2069.8 -2674.23,3383.1 -24.98,736.9 284.3,1386.3 833.73,1767 -540.15,1855.3 -570.22,3567.7 -89.1,5091.6 533.8,1690.6 1717,3219.3 3516.8,4543.6 83.8,61.6 201.8,43.7 263.5,-40.1 61.7,-83.9 43.7,-201.9 -40.1,-263.5 -3350,-2465 -4412.93,-5526.5 -3249.6,-9359.4 25.4,-83.7 -10.1,-173.8 -85.6,-217.7 -513.55,-298.5 -795.23,-848.4 -772.87,-1508.8 39.74,-1172.1 960.97,-2315.3 2464.37,-3057.8 541.5,-267.5 1133.6,-463.4 1759.9,-582.4 3998.6,-759.5 8063.9,-759.3 12083.3,0.3 627.1,118.5 1220.3,314.7 1763,582.9 1502.5,742.7 2423.1,1885.6 2462.7,3057.3 22.3,660.2 -259.4,1210 -772.8,1508.5 -75.6,43.9 -111.1,134 -85.7,217.7 1163.4,3832.9 100.4,6894.4 -3249.6,9359.4 -83.8,61.6 -101.8,179.6 -40.1,263.5 61.8,83.8 179.7,101.7 263.6,40.1 1799.7,-1324.3 2983,-2853 3516.7,-4543.6 481.2,-1523.9 451.1,-3236.3 -89,-5091.6 549.3,-380.7 858.5,-1029.9 833.7,-1766.7 C 30597.4,8915.1 29598.4,7650.6 27969.4,6845.4 27395.9,6561.9 26770.1,6354.9 26109.3,6230 24076.4,5845.7 22031,5653.6 19989,5653.6"
             style="fill:#000073;fill-opacity:1;fill-rule:nonzero;stroke:none"
             id="path457" /><path
             d="m 10566.5,12016.7 c 100.7,-165.1 208.9,-332.1 318.1,-495.6 109.8,-163.7 222.4,-325.7 338.4,-485 232.9,-317.6 478,-627.3 753.4,-905.4 l 0.9,-0.9 c 30.1,-30.3 29.9,-79.4 -0.5,-109.5 -28.6,-28.4 -74,-29.6 -104.3,-4.4 -311,260.4 -589.7,552.7 -856.7,853.5 -133,150.9 -262.6,304.7 -389.6,460.6 -127.2,156.6 -250.6,313 -373.1,477.3 -62.2,83.6 -45,201.8 38.6,264.1 83.6,62.3 201.9,45 264.1,-38.6 3.5,-4.7 6.7,-9.4 9.7,-14.3 l 1,-1.8"
             style="fill:#000073;fill-opacity:1;fill-rule:nonzero;stroke:none"
             id="path459" /><path
             d="m 29739.8,11801.8 c -140.6,-175.2 -282.6,-336.7 -430.8,-498.2 -147.7,-160.3 -300.2,-316.2 -457,-467.5 -156.4,-151.6 -320.1,-296.1 -487.6,-435.8 -168.1,-138.9 -344.3,-268.7 -525.8,-390 -35.6,-23.8 -83.7,-14.3 -107.5,21.3 -22.4,33.6 -15.1,78.4 15.7,103.3 l 1.8,1.4 c 165.1,132.4 324.2,272.1 475.3,420.6 150.5,149.3 296.8,302.7 435.8,462.9 139.4,159.9 274.2,323.7 403.8,491.4 128.8,167 256.1,340.4 370.5,511.1 l 1.8,2.7 c 58,86.6 175.2,109.8 261.8,51.7 86.6,-58 109.8,-175.2 51.8,-261.8 -3,-4.5 -6.3,-9 -9.6,-13.1"
             style="fill:#000073;fill-opacity:1;fill-rule:nonzero;stroke:none"
             id="path461" /><path
             d="m 25460,13987.7 c -9.8,-7.2 -19.6,-13.4 -29.4,-20.1 -320.6,-211.7 -786.4,-366.1 -1426.7,-450.8 -62.4,-8.2 -126.5,-16 -192,-22.7 -152.9,-6.2 -296.9,-7.2 -432.2,-4.1 -322.7,7.7 -596.4,42.3 -825.2,97.1 -603.6,142.5 -894.3,422.9 -950.5,720.3 -47,248.9 70.7,510.1 307.7,711 -488.5,152 -997.1,136.2 -1257.8,120.3 -93.5,-5.7 -155.1,-11.3 -172.5,-9.3 -76.4,8.8 -1402.4,108.9 -2736.1,-81.1 260.7,-205 393.4,-479.7 343.9,-740.9 -86.3,-457 -727.6,-874.2 -2207.4,-813.3 -86.8,9.3 -170.4,19.6 -251,31 -6.2,0.5 -12.9,1.6 -19.1,2.6 h -0.5 c -387.3,341.8 -861.3,530.3 -1348.2,439.9 -1218.6,804 -358.9,2436.1 932,4240.3 h 9303.6 c 1280.6,-1789.7 2136.7,-3409.5 961.4,-4220.2"
             style="fill:#5f537b;fill-opacity:1;fill-rule:nonzero;stroke:none"
             id="path463" /><path
             d="m 21985.8,14042.3 c -48.4,39.6 -90.6,82.8 -122.1,129.8 -55,77 -81.4,161.7 -80.4,248.7 1.9,176.7 130.3,354.5 297.3,488.9 30.8,25.4 63.2,49.3 97,71.7 24.4,9 46.4,22.9 64.9,40.4 135.5,78.8 289.4,136 449.7,168.9 132.6,27.2 269.6,40.7 408.1,40.7 56.4,0 113.1,-2.3 169.8,-6.7 -763.8,-133.3 -1295.6,-446.8 -1284.3,-1182.4"
             style="fill:#b7b1c3;fill-opacity:1;fill-rule:nonzero;stroke:none"
             id="path465" /><path
             d="m 14298.7,14175.4 c -35.9,26.8 -70.3,55.1 -102.8,84.9 -165.9,146.7 -267.7,338.6 -309.4,551.8 -7.8,25.9 -7.8,54.3 -11.6,81.4 -2.4,27.6 -7.5,54.6 -8.1,82.6 l -0.5,84.5 -0.4,42.3 3.6,42.9 7.1,85.9 c 2,28.6 8.8,57.6 12.9,86.4 l 14.3,86.6 21,86.5 c 56.1,231.4 152.4,456.4 246.6,683.7 94.7,227.8 202.4,453.6 320.1,675.5 119.4,221 242.4,441.9 371.4,660.1 130,217.6 261.8,435.2 395.2,652.4 l 0.1,0.3 c 1.9,3.1 3.5,6.2 4.9,9.4 112.2,-46.5 226.2,-91.2 342.4,-134.4 -1112.5,-1564.1 -1885.8,-2992.3 -1238.4,-3854.9 -22.9,-2.1 -45.6,-4.7 -68.4,-7.9"
             style="fill:#b7b1c3;fill-opacity:1;fill-rule:nonzero;stroke:none"
             id="path467" /><path
             d="m 16462.9,15361.2 c 2205,1673.2 4492.6,1643.9 6858.4,0 h -6858.4"
             style="fill:#ffffff;fill-opacity:1;fill-rule:nonzero;stroke:none"
             id="path469" /><path
             d="m 12211.1,30384.4 c 0,816.9 661.9,1478.8 1478.8,1478.8 782.2,0 1422.5,-607.2 1474.7,-1376.5 -490.1,-363 -940.8,-762.7 -1348.8,-1189.7 l -3,-3.1 c -116.2,-121.9 -229.3,-245.8 -338.2,-372.3 -7.3,1 -14.5,2.1 -21.7,3.6 -704.3,112.6 -1241.8,723.4 -1241.8,1459.2 m 14022.4,1478.8 c 816.9,0 1478.9,-661.9 1478.9,-1478.8 0,-707.9 -496.8,-1299.1 -1161.3,-1444.2 -517.4,594.8 -1116.4,1144.7 -1784.5,1627.5 89.8,730.7 712.6,1295.5 1466.9,1295.5 M 27495,27662.7 c -0.5,1.6 -1.6,2.6 -2.1,4.2 -49,78.5 -99.1,156.9 -150.8,234.9 2.1,1 4.2,2.1 6.2,3.1 945.5,425.5 1603.3,1375.6 1603.3,2479.5 0,1501 -1216.5,2718.1 -2718.1,2718.1 -1191.7,0 -2204.8,-767.3 -2570.9,-1834.6 -96,53.2 -193.6,104.8 -291.7,154.9 -330.5,168.8 -670.7,311.4 -1017.7,427.5 935.1,374.4 77.9,997.6 -924.8,276.3 1015.1,748.2 188.5,1283.1 -1329.6,102.2 1118.4,1781.4 -735.8,1361.1 -1671.9,110 -163.7,-218.4 -393,-376.9 -652.2,-460.6 -376.9,-120.8 -746.1,-272.6 -1103.9,-455.4 -132.2,-67.6 -262.9,-137.9 -391.4,-210.7 -349.6,1096.2 -1377.1,1890.4 -2589.5,1890.4 -1501.1,0 -2718.1,-1217.1 -2718.1,-2718.1 0,-1142.1 704.3,-2119.6 1702.4,-2521.8 -42.3,-65.1 -84.2,-130.1 -124.4,-195.7 -1721.5,-2775.4 -1781.4,-6098.6 796.2,-8200.7 1397.7,-1140.1 3570.5,-1920.3 6674.8,-2060.7 8549.2,385.2 10036.8,5632.8 7711.7,9851.4 -74.9,136.3 -153.9,271.6 -237.5,405.8"
             style="fill:#ffffff;fill-opacity:1;fill-rule:nonzero;stroke:none"
             id="path471" /><path
             d="m 16352.7,31212.1 c 0,0 -1360.1,-844.7 -2463.5,-1915.1 -1.1,-1 -2.1,-2.1 -3.1,-3.1 -123.9,-120.3 -244.8,-243.7 -359.9,-368.7 -318.1,-345.4 -593.8,-705.8 -778.7,-1062.6 -998.1,402.2 -1702.4,1379.7 -1702.4,2521.8 0,1501 1217.1,2718.1 2718.1,2718.1 1212.4,0 2239.9,-794.2 2589.5,-1890.4"
             style="fill:#5f537b;fill-opacity:1;fill-rule:nonzero;stroke:none"
             id="path473" /><path
             d="m 12040.6,28529.1 c -506.5,468.8 -807,1133.9 -807,1855.3 0,1394.8 1134.8,2529.6 2529.6,2529.6 86.2,0 171.5,-4.3 255.8,-12.7 -1419.8,-89.9 -2543.8,-1270.1 -2543.8,-2712.6 0,-624.8 210.9,-1200.5 565.4,-1659.6"
             style="fill:#b7b1c3;fill-opacity:1;fill-rule:nonzero;stroke:none"
             id="path475" /><path
             d="m 23702,31212.1 c 0,0 1360.1,-844.7 2463.5,-1915.1 1.1,-1 2.1,-2.1 3.1,-3.1 124,-120.3 244.8,-243.7 359.9,-368.7 318.1,-345.4 593.8,-705.8 778.7,-1062.6 998.1,402.2 1702.4,1379.7 1702.4,2521.8 0,1501 -1217,2718.1 -2718.1,2718.1 -1212.3,0 -2239.9,-794.2 -2589.5,-1890.4"
             style="fill:#5f537b;fill-opacity:1;fill-rule:nonzero;stroke:none"
             id="path477" /><path
             d="m 23994.7,31021.6 c -55.4,37.1 -104.1,69.2 -145.1,95.9 29.6,22.4 52.3,53.4 64.6,89.2 350.3,1021.2 1311.9,1707.3 2392.7,1707.3 368.5,0 718.8,-79.2 1034.9,-221.5 -250.6,76.2 -516.6,117.2 -792.3,117.2 -1174.1,0 -2175.3,-745.1 -2554.8,-1788.1"
             style="fill:#b7b1c3;fill-opacity:1;fill-rule:nonzero;stroke:none"
             id="path479" /><path
             d="m 25032.5,10588.6 c -499.8,-245.2 -1066.8,-331 -1614.1,-227.7 -202.9,37.7 -402.7,93.5 -600.5,164.2 h -5942.2 c -197.7,-70.7 -398.1,-126.5 -600.5,-164.2 -547.3,-103.3 -1114.3,-17.5 -1614.6,227.7 -1074,527.7 -1748.9,1504.7 -1453.5,2441.3 131.6,416.7 456.9,751.8 871.1,890.2 61.9,20.7 123.4,36.7 184.8,47.5 486.9,90.4 960.9,-98.1 1348.2,-439.9 h 0.5 l 10.9,-9.3 8.2,6.7 c 80.6,-11.4 164.2,-21.7 251,-31 1479.8,-60.9 2121.1,356.3 2207.4,813.3 H 21604 c 86.7,-457 728,-874.2 2207.9,-813.3 739.9,78 1266.6,241.2 1618.7,473.5 61.5,-10.8 122.9,-26.8 184.9,-47.5 414.1,-138.4 739.4,-473.5 870.5,-890.2 295.4,-936.6 -379.5,-1913.6 -1453.5,-2441.3"
             style="fill:#5f537b;fill-opacity:1;fill-rule:nonzero;stroke:none"
             id="path481" /><path
             d="m 23921.3,13372.8 c 0,0 -901,-365.1 -1606.9,-1083.3 -705.8,-718.8 -3941.3,-915 -5043.1,142 -1101.4,1056.9 -1615.7,1056.9 -1615.7,1056.9 l 7.8,32.1 c 70.2,-9.3 143,-18.1 218.4,-26.4 1479.8,-60.9 2121.1,356.3 2207.4,813.3 49.5,261.2 -83.2,535.9 -343.9,740.9 1333.7,190 2659.7,89.9 2736.1,81.1 17.4,-2 79,3.6 172.5,9.3 260.7,15.9 769.3,31.7 1257.8,-120.3 -237,-200.9 -354.7,-462.1 -307.7,-711 86.7,-457 728,-874.2 2207.9,-813.3 17,1.6 34,3.6 50.6,5.7 l 58.8,-127"
             style="fill:#ffffff;fill-opacity:1;fill-rule:nonzero;stroke:none"
             id="path483" /><path
             d="m 27785.7,30384.4 c 0,-707.9 -496.7,-1299.1 -1161.3,-1444.2 -517.4,594.8 -1116.3,1144.7 -1784.5,1627.5 89.9,730.7 712.6,1295.5 1467,1295.5 816.8,0 1478.8,-661.9 1478.8,-1478.8"
             style="fill:#d878ef;fill-opacity:1;fill-rule:nonzero;stroke:none"
             id="path485" /><path
             d="m 25512.1,30286 c -152.1,125.8 -308.1,247.8 -467.4,365.5 123.5,590.4 648.2,1023.3 1262.2,1023.3 402.3,0 762.1,-185.1 998.9,-474.5 -128.7,36.6 -264.7,56.2 -405.1,56.2 -637.9,0 -1182,-403.9 -1388.6,-970.5"
             style="fill:#9754ca;fill-opacity:1;fill-rule:nonzero;stroke:none"
             id="path487" /><path
             d="m 22486.4,13596.9 -286.1,-346.5 c -206,-249.4 -586.5,-255.6 -800.8,-13.4 l -624.3,706.3 h -1856.8 l -624.2,-706.3 c -214.3,-242.2 -594.9,-236 -800.9,13.4 l -286.1,346.5 1.6,7.2 c 556.1,147.7 826.7,417.7 880.4,703.3 49.5,261.2 -83.2,535.9 -343.9,740.9 477.1,68.2 953.2,98.7 1371.4,110 h 794.1 c 327.9,-8.8 541.2,-25.3 570.6,-28.9 17.4,-2 79,3.6 172.5,9.3 260.7,15.9 769.3,31.7 1257.8,-120.3 -237,-200.9 -354.7,-462.1 -307.7,-711 54.2,-285.6 324.7,-555.6 880.8,-703.3 l 1.6,-7.2"
             style="fill:#6161bc;fill-opacity:1;fill-rule:nonzero;stroke:none"
             id="path489" /><path
             d="m 15237.9,30486.7 c -631,-467.9 -1197.9,-996.1 -1690,-1565.1 -714.7,103.8 -1263.5,719.3 -1263.5,1462.8 0,816.9 661.9,1478.8 1478.8,1478.8 782.3,0 1422.5,-607.2 1474.7,-1376.5"
             style="fill:#d878ef;fill-opacity:1;fill-rule:nonzero;stroke:none"
             id="path491" /><path
             d="m 12970.3,29368.1 c -303.8,238.5 -497.5,609.5 -497.5,1016.3 0,711.5 578.9,1290.4 1290.4,1290.4 352.4,0 674.7,-143.4 909,-376.2 -98.1,20.5 -199.7,31.3 -303.9,31.3 -816.8,0 -1478.8,-662 -1478.8,-1478.9 0,-169.1 28.4,-331.6 80.8,-482.9"
             style="fill:#9754ca;fill-opacity:1;fill-rule:nonzero;stroke:none"
             id="path493" /><path
             d="m 15611.2,13527.7 c -600,86.7 -1040.4,237 -1348.2,439.9 486.9,90.4 960.9,-98.1 1348.2,-439.9"
             style="fill:#5f537b;fill-opacity:1;fill-rule:nonzero;stroke:none"
             id="path495" /><path
             d="m 25044.7,30651.5 c 601.7,-444.6 1154,-948.2 1644.4,-1499.5 532.2,165 908.1,666.9 908.1,1232.4 0,711.5 -578.9,1290.4 -1290.3,1290.4 -614,0 -1138.7,-432.9 -1262.2,-1023.3 m 1579.7,-1899.8 c -53.9,0 -106,23.1 -142.2,64.8 -515.8,593 -1105.5,1130.8 -1752.7,1598.4 -55.7,40.3 -85.1,107.7 -76.7,175.8 102.4,832.9 813.5,1461 1654.1,1461 919.3,0 1667.3,-747.9 1667.3,-1667.3 0,-777.8 -550.8,-1462.7 -1309.6,-1628.4 -13.4,-2.9 -26.8,-4.3 -40.2,-4.3 m -12861.2,2923.1 c -711.5,0 -1290.4,-578.9 -1290.4,-1290.4 0,-602.7 425,-1126.7 1003.7,-1258 467.3,529.1 992.2,1015.1 1562.7,1446.9 -91.5,625.2 -633.8,1101.5 -1276,1101.5 m -215.3,-2941.7 c -9,0 -18.1,0.7 -27.1,2 -812.3,117.9 -1424.9,827 -1424.9,1649.3 0,919.4 747.9,1667.3 1667.3,1667.3 873.4,0 1603.7,-681.8 1662.7,-1552.3 4.4,-64.1 -24.2,-125.9 -75.8,-164.2 -611.2,-453.1 -1169.6,-970.2 -1659.7,-1536.9 -36,-41.7 -88.2,-65.2 -142.5,-65.2 m 215.3,4180.9 c -1394.8,0 -2529.6,-1134.8 -2529.6,-2529.6 0,-1037.9 621.9,-1959.2 1584.4,-2347 52.3,-21.1 92.5,-64.5 109.4,-118.4 16.9,-53.8 8.7,-112.4 -22.2,-159.6 -1427.8,-2180.9 -1713.4,-4590.6 -763.9,-6445.8 802.7,-1568.5 2834.1,-3486.6 7952.9,-3719.5 5127.5,233.2 7157.9,2157 7958.2,3730.2 949.7,1866.7 652.8,4286.6 -794.1,6473.5 -30.6,46.2 -39.3,103.4 -23.8,156.6 15.4,53.2 53.4,96.8 104,119.4 910,407.2 1497.9,1314.2 1497.9,2310.6 0,1394.8 -1134.7,2529.6 -2529.5,2529.6 -1080.8,0 -2042.4,-686.1 -2392.7,-1707.3 -18,-52.7 -58.5,-94.7 -110.5,-114.7 -52,-20 -110.3,-16 -159,11 -89.5,49.5 -185.8,100.7 -286.2,151.9 -318.8,162.9 -652.5,303.1 -991.8,416.7 -75,25.1 -126.3,94.3 -128.6,173.3 -2.3,79 45,151 118.4,180.4 197.2,79 266.6,154.9 281.1,184.7 -12.2,11.6 -46.5,34.4 -114.8,48.5 -193.3,40.2 -534.2,-13.8 -911,-284.9 -84.2,-60.5 -201.5,-41.8 -262.4,42.1 -61.1,83.7 -43,201.1 40.5,262.6 318.1,234.5 373,395.2 371,430.7 -72.8,60.1 -596.1,53.2 -1473.1,-629 -72.2,-56.2 -174.3,-52.4 -242.1,9 -67.9,61.3 -81.9,162.6 -33.2,240.1 345.4,550.1 357.5,827.6 281.4,879.9 -202.5,138.7 -1071.8,-220.1 -1642.8,-983.1 -185.4,-247.3 -443,-429.6 -745.2,-527.1 -369.1,-118.2 -731,-267.6 -1076.1,-443.9 -130.6,-66.8 -259.9,-136.4 -384.3,-206.8 -49.4,-28 -108.7,-32.1 -161.6,-11.4 -52.9,20.7 -93.6,64.1 -110.8,118.2 -335.5,1052.2 -1304,1759.1 -2409.9,1759.1 m 6331,-15697 c -2.9,0 -5.7,0 -8.5,0.2 -2177.4,98.2 -4007.3,514.6 -5439,1237.6 -1311.7,662.4 -2267.5,1566.5 -2841,2687 -984.7,1924.1 -733.6,4391.5 665.4,6638.2 -987.8,488.4 -1614.4,1487.7 -1614.4,2604.4 0,1602.7 1303.8,2906.5 2906.5,2906.5 1194,0 2248.7,-717.3 2691.5,-1807.2 67.2,36.2 135.2,71.9 203.5,106.9 363.3,185.6 744.2,342.7 1132.3,467.1 227.2,73.4 420.6,209.7 558.9,394.1 635.8,849.9 1704.7,1379 2157.8,1068 156.4,-107.4 277.1,-319.9 144.5,-740 512.8,292.1 961.9,399.7 1241.5,283.4 136.9,-57.1 225,-168.7 241.6,-306.3 5.4,-44.8 3.5,-90.8 -5.7,-137.6 274.1,56.6 508.7,24.9 665.6,-61.7 150.2,-82.9 231,-215.9 221.8,-364.7 -5.3,-85.5 -41.5,-192.8 -155.4,-300.4 227.8,-89.9 451.6,-190.9 668.9,-301.9 36.3,-18.5 72,-37 107.2,-55.4 455.5,1058.7 1502,1755.7 2669.7,1755.7 1602.6,0 2906.5,-1303.8 2906.5,-2906.5 0,-1071.6 -591.8,-2053.1 -1524.9,-2557.9 1421.9,-2254.6 1685.7,-4735.4 699.9,-6673.1 -571.7,-1123.8 -1527,-2030.5 -2839.5,-2694.9 -1432.8,-725.4 -3265.2,-1143 -5446.2,-1241.3 -2.9,-0.2 -5.7,-0.2 -8.5,-0.2"
             style="fill:#000073;fill-opacity:1;fill-rule:nonzero;stroke:none"
             id="path497" /><path
             d="m 24651.8,18317.7 c 298.1,-417.8 588,-843.8 851.1,-1291.4 130.8,-224.3 254.1,-454.5 363.9,-693.9 109.1,-239.5 205.4,-488.7 269.1,-753.5 l 23.3,-99.5 17.2,-102 c 4.9,-34.3 12.3,-67.7 15.1,-102.7 l 8.7,-104.7 4.2,-52.3 -0.2,-53.4 -0.9,-106.7 c -1,-35.6 -6.8,-71.8 -10.2,-107.7 -4.8,-35.9 -6,-71.9 -15.6,-107.7 l -24.2,-107.3 c -6.6,-36 -22.8,-70.2 -34.1,-105.3 -13.7,-34.4 -22.4,-70.8 -40.7,-103.3 l -50.5,-99.5 c -15.4,-34.1 -39.2,-62.8 -59.2,-94 -21.6,-30 -40.4,-62.6 -64.7,-90.1 l -72.8,-82.5 c -12.4,-13.4 -24.1,-27.8 -37.2,-40.3 l -40.3,-36.2 c -214.5,-196.3 -466.8,-324.5 -720.1,-418.6 -254.4,-93.8 -514.1,-156.7 -773.6,-198.6 -128.6,-25 -262.7,-38.1 -394.8,-55.4 -32.9,-5.4 -66.8,-6 -100.6,-6.9 l -101.5,-2.9 c -66.9,-1.3 -131.6,-1 -197.5,-1.2 -263,4.3 -527.9,20.8 -793.2,70.3 -264.3,49 -532.6,125.4 -782.7,277.8 -123.1,78.4 -243.9,175.1 -335.6,308.7 -94,130 -150,299.6 -148.9,467.7 0.5,168.8 56.6,327.7 136.5,460.9 41.5,65.9 88.6,126.6 140.1,181.8 52.8,53.6 108.4,103.7 168.5,145.8 240.3,169.9 516.1,258.9 790,293.4 274.8,35.7 550.1,9.9 810.1,-53.7 261,-62.4 505.6,-170.7 731.6,-301.6 37.1,-21.5 49.7,-69 28.3,-106 -19.6,-33.9 -60.8,-47.4 -96.1,-33.2 l -1.4,0.6 c -115.9,46.5 -232.6,88.5 -351.1,122.2 -118.5,33.5 -238.5,57.9 -358.4,75.2 -240.2,33.8 -482.3,27.6 -711.2,-19.3 -228.4,-46.9 -443.9,-143 -611.6,-281 -167,-134.4 -295.4,-312.2 -297.3,-488.9 -1,-87 25.4,-171.7 80.4,-248.7 52.4,-78 133.9,-145.7 225,-203.6 186.3,-114.5 416.4,-184.7 652.1,-227.4 236.2,-44.2 482.3,-60 728.8,-64 l 184.9,1 89.8,2.6 c 29.8,0.6 59.7,0.9 89.9,6.1 120.6,16.4 240.6,27.6 362.5,51.3 243.6,39.1 481.9,97.7 705.8,180.4 223.4,82.4 432.7,192.7 595.1,341.8 166,146.7 267.8,338.6 309.5,551.8 7.8,25.9 7.8,54.3 11.5,81.4 2.4,27.6 7.5,54.6 8.1,82.6 l 0.6,84.5 0.4,42.3 -3.7,42.9 -7,85.9 c -2.1,28.6 -8.8,57.6 -12.9,86.4 l -14.4,86.6 -20.4,86.7 c -55.5,231.1 -143.1,460.3 -245.4,684.3 -102.8,224.2 -220.4,444.1 -346.4,660.3 -253.9,431.9 -538.1,850.1 -832.3,1262.3 l -0.3,0.4 c -60.4,84.7 -40.8,202.5 44,262.9 84.7,60.5 202.4,40.8 262.9,-43.9 v 0"
             style="fill:#000073;fill-opacity:1;fill-rule:nonzero;stroke:none"
             id="path499" /><path
             d="m 16260.4,26210.6 c 0,0 1868.6,279.7 1945.6,-1503.8 77,-1783.6 -325.9,-3872.9 -3258.9,-3582.4 -2869.8,284.2 -2176.7,2693.8 -1884.9,3038 823.5,1144.2 1874.6,1855.3 3198.2,2048.2"
             style="fill:#5f537b;fill-opacity:1;fill-rule:nonzero;stroke:none"
             id="path501" /><path
             d="m 14918.7,23545.3 c 0,-850.8 635.7,-1540.5 1419.9,-1540.5 784.2,0 1420,689.7 1420,1540.5 0,850.7 -635.8,1540.4 -1420,1540.4 -784.2,0 -1419.9,-689.7 -1419.9,-1540.4"
             style="fill:#ffffff;fill-opacity:1;fill-rule:nonzero;stroke:none"
             id="path503" /><path
             d="m 15762,23545.3 c 0,-685.6 446.7,-1241.4 997.7,-1241.4 550.9,0 997.6,555.8 997.6,1241.4 0,685.6 -446.7,1241.3 -997.6,1241.3 -551,0 -997.7,-555.7 -997.7,-1241.3"
             style="fill:#000073;fill-opacity:1;fill-rule:nonzero;stroke:none"
             id="path505" /><path
             d="m 16153,24031.5 c 0,-242.4 173.4,-438.9 387.3,-438.9 213.9,0 387.3,196.5 387.3,438.9 0,242.4 -173.4,438.9 -387.3,438.9 -213.9,0 -387.3,-196.5 -387.3,-438.9"
             style="fill:#ffffff;fill-opacity:1;fill-rule:nonzero;stroke:none"
             id="path507" /><path
             d="m 17095.4,23118.2 c 0,-165.8 114.1,-300.1 254.9,-300.1 140.8,0 255,134.3 255,300.1 0,165.7 -114.2,300.1 -255,300.1 -140.8,0 -254.9,-134.4 -254.9,-300.1"
             style="fill:#ffffff;fill-opacity:1;fill-rule:nonzero;stroke:none"
             id="path509" /><path
             d="m 16338.6,24930.8 c -697.5,0 -1265,-621.6 -1265,-1385.5 0,-764 567.5,-1385.6 1265,-1385.6 697.6,0 1265.1,621.6 1265.1,1385.6 0,763.9 -567.5,1385.5 -1265.1,1385.5 z m 0,-3080.9 c -868.4,0 -1574.8,760.5 -1574.8,1695.4 0,934.8 706.4,1695.3 1574.8,1695.3 868.4,0 1574.9,-760.5 1574.9,-1695.3 0,-934.9 -706.5,-1695.4 -1574.9,-1695.4"
             style="fill:#000073;fill-opacity:1;fill-rule:nonzero;stroke:none"
             id="path511" /><path
             d="m 16759.7,24670.1 c -485.9,0 -881.1,-504.6 -881.1,-1124.8 0,-620.3 395.2,-1124.9 881.1,-1124.9 485.8,0 881.1,504.6 881.1,1124.9 0,620.2 -395.3,1124.8 -881.1,1124.8 z m 0,-2482.8 c -614.4,0 -1114.2,609.2 -1114.2,1358 0,748.7 499.8,1357.9 1114.2,1357.9 614.3,0 1114.2,-609.2 1114.2,-1357.9 0,-748.8 -499.9,-1358 -1114.2,-1358"
             style="fill:#000073;fill-opacity:1;fill-rule:nonzero;stroke:none"
             id="path513" /><path
             d="m 15461.8,15250.5 c 241.7,119.4 499,214.4 768.9,265.9 269.1,52.4 550.2,63.6 827.1,18.2 276.1,-45.1 549.6,-146.4 784.2,-323 116.7,-88.5 223.1,-196.9 305.7,-328.7 81.2,-131.4 139,-289.5 140,-458.4 2.1,-167.9 -54.6,-337.6 -148.3,-467.6 -91.7,-133.5 -212.6,-230.3 -335.7,-308.7 -250.1,-152.4 -518.3,-228.8 -782.7,-277.8 -265.2,-49.5 -530.2,-66 -793.1,-70.3 -66,0.2 -130.7,-0.1 -197.6,1.2 l -101.4,2.9 c -33.9,0.9 -67.8,1.5 -100.6,6.9 -132.1,17.3 -266.2,30.4 -394.8,55.4 -259.6,41.9 -519.2,104.8 -773.7,198.6 -253.2,94.1 -505.6,222.3 -720,418.6 l -40.4,36.2 c -13.1,12.5 -24.7,26.9 -37.1,40.3 l -72.9,82.5 c -24.2,27.5 -43.1,60.1 -64.6,90.1 -20,31.2 -43.9,59.9 -59.2,94 l -50.5,99.5 c -18.4,32.5 -27.1,68.9 -40.8,103.3 -11.2,35.1 -27.5,69.3 -34,105.3 l -24.3,107.3 c -9.6,35.8 -10.7,71.8 -15.5,107.7 -3.4,35.9 -9.2,72.1 -10.2,107.7 l -1,106.7 -0.1,53.4 4.1,52.3 8.7,104.7 c 2.8,35 10.2,68.4 15.2,102.7 l 17.1,102 22.8,99.6 c 63.2,264.7 150.7,518 267.9,754.1 117.8,235.9 251.2,460.2 390.2,678.9 280.7,435.6 591.7,845.1 916.9,1241.1 27.2,33.1 76.1,37.9 109.2,10.7 30.4,-24.9 37,-68.1 16.9,-100.6 l -0.1,-0.3 c -133.4,-217.2 -265.2,-434.8 -395.2,-652.4 -129,-218.2 -252,-439.1 -371.4,-660.1 -117.7,-221.9 -225.4,-447.7 -320.1,-675.5 -94.2,-227.3 -190.5,-452.3 -246.6,-683.7 l -21,-86.5 -14.3,-86.6 c -4.1,-28.8 -10.9,-57.8 -12.9,-86.4 l -7.1,-85.9 -3.6,-42.9 0.4,-42.3 0.5,-84.5 c 0.6,-28 5.7,-55 8.1,-82.6 3.8,-27.1 3.8,-55.5 11.6,-81.4 41.7,-213.2 143.5,-405.1 309.4,-551.8 162.4,-149.1 371.8,-259.4 595.1,-341.8 223.9,-82.7 462.2,-141.3 705.9,-180.4 121.8,-23.7 241.8,-34.9 362.4,-51.3 30.2,-5.2 60.1,-5.5 90,-6.1 l 89.7,-2.6 184.9,-1 c 246.5,4 492.6,19.8 728.9,64 235.6,42.7 465.8,112.9 652,227.4 91.1,57.9 172.7,125.6 225.1,203.6 55.2,77 80.9,161.6 80.9,248.7 -0.2,87.2 -31.2,178.4 -83.3,263.1 -53,84.6 -126.9,162 -213.4,227.3 -173.5,131.2 -391.3,215 -617.4,251.4 -226.7,37.2 -463.2,28.8 -694.1,-16.2 -231.5,-44 -457.1,-127 -672.2,-233.1 l -1.8,-0.9 c -93.4,-46 -206.4,-7.7 -252.4,85.7 -46.1,93.3 -7.8,206.3 85.6,252.4"
             style="fill:#000073;fill-opacity:1;fill-rule:nonzero;stroke:none"
             id="path515" /><path
             d="m 25032.5,10588.6 c -499.8,-245.2 -1066.8,-331 -1614.1,-227.7 -148.7,27.9 -295.9,65.1 -442,111 -53.2,16.6 -105.8,34.6 -158.5,53.2 h -5942.2 c -197.7,-70.7 -398.1,-126.5 -600.5,-164.2 -547.3,-103.3 -1114.3,-17.5 -1614.6,227.7 -1074,527.7 -1748.9,1504.7 -1453.5,2441.3 131.6,416.7 456.9,751.8 871.1,890.2 1171,390.4 2325.1,-915 2436.1,-2168.7 h 6665 c 93.5,1053.9 923.3,2143.4 1880.6,2233.3 19.1,1.5 37.7,3 56.3,3.6 73.8,4.1 147.6,2 222.5,-6.7 91.9,-10.4 184.3,-30.5 276.8,-61.5 414.1,-138.4 739.4,-473.5 870.5,-890.2 295.4,-936.6 -379.5,-1913.6 -1453.5,-2441.3"
             style="fill:#5f537b;fill-opacity:1;fill-rule:nonzero;stroke:none"
             id="path517" /><path
             d="m 23311.7,11965 c 94.8,327.5 242.1,634.5 433.6,907.8 116.8,166.4 248.8,321 396.4,455 73.6,67.2 151,128.9 231.4,185.1 81.4,54.3 165.3,103.6 252,144.4 173.6,81.4 357.8,127.6 541.5,132 5.7,0.1 11.4,0.2 17.2,0.2 42.2,0 84.5,-2.4 126.7,-7 14.7,-14.2 28.9,-28.5 42.8,-42.9 -4.5,-0.2 -9.1,-0.5 -13.6,-0.7 -18.5,-0.5 -37.1,-2.1 -56.2,-3.6 -710,-66.4 -1349.6,-682.8 -1670.7,-1426.4 -62.5,-144.5 -167.1,-265.8 -301.1,-343.9"
             style="fill:#b7b1c3;fill-opacity:1;fill-rule:nonzero;stroke:none"
             id="path519" /><path
             d="m 13858,11399.9 c -93.7,98.7 -178.8,204.4 -250.9,317.1 -107.7,165.7 -190.9,344.7 -237.4,530.5 -45.7,185.8 -55.2,377.9 -19.8,563 22.4,91.5 42.3,184.4 80.9,268.5 36.6,85.4 84.2,166 139.9,240.1 111.5,148.4 258,269.8 423.4,350.2 159.1,79.3 338.7,120 515.9,120 5.7,0 11.5,0 17.3,-0.1 53.8,-1.3 107.6,-6.2 161.2,-14.5 -69.8,-11.6 -140,-28.9 -210.2,-52.3 -414.1,-138.4 -739.4,-473.5 -871,-890.2 -154.6,-489.7 -43.8,-990.5 250.7,-1432.3"
             style="fill:#b7b1c3;fill-opacity:1;fill-rule:nonzero;stroke:none"
             id="path521" /><path
             d="m 16437.1,11744.6 c -87.4,410.3 -255.3,794.2 -489,1127.9 -116.8,166.4 -248.6,321.1 -396.2,455 -73.5,67.3 -150.9,129 -231.2,185.3 -81.4,54.3 -165.3,103.6 -252,144.4 -173.5,81.5 -357.8,127.4 -541.4,132 -182.8,2.7 -369,-38 -533.2,-119.9 -165.4,-80.4 -311.9,-201.8 -423.4,-350.2 -55.7,-74.1 -103.3,-154.7 -139.9,-240.1 -38.6,-84.1 -58.5,-177 -80.9,-268.5 -35.4,-185.1 -25.9,-377.2 19.8,-563 46.5,-185.8 129.7,-364.8 237.4,-530.5 106.6,-166.7 241.5,-317.8 390.8,-453.8 148.9,-136.4 312.5,-259.5 488.8,-363.1 l 65.3,-40.1 c 22.2,-12.6 45.2,-24 67.7,-36.1 45.3,-23.7 90.4,-48.7 135.7,-71.3 90.2,-44.1 183.5,-81.5 278.2,-114.5 189.7,-64.7 387.1,-107.4 586.6,-123.1 199.2,-17.2 400.4,-7.4 596.7,27.1 200.4,35.4 400,90.7 594.1,160.1 l 1.1,0.4 0.9,0.3 c 20.4,7.2 42.1,10.6 62.7,10.7 h 5941.3 0.9 c 22,0 43.9,-4.1 63.6,-11 194.1,-69.5 393.7,-124.8 594.1,-160.3 196.3,-34.6 397.5,-44.5 596.8,-27.4 199.5,15.7 397,58.2 586.7,122.9 94.7,33 188.1,70.3 278.2,114.4 45.4,22.5 90.5,47.6 135.8,71.2 l 67.7,36.2 65.4,40.1 c 176.3,103.5 339.9,226.6 488.9,363 149.3,135.9 284.3,287.1 391,453.7 107.7,165.7 191,344.7 237.6,530.6 46.4,185.7 55.7,377.9 20.3,563 -22.3,91.6 -42.3,184.5 -80.9,268.7 -36.5,85.4 -83.7,166.2 -139.6,240.3 -111.6,148.5 -258.1,270.1 -423.5,350.5 -164.5,81.6 -350.6,122.6 -533.4,119.8 -183.7,-4.4 -367.9,-50.6 -541.5,-132 -86.7,-40.8 -170.6,-90.1 -252,-144.4 -80.4,-56.2 -157.8,-117.9 -231.4,-185.1 -147.6,-134 -279.6,-288.6 -396.4,-455 -233.9,-333.7 -401.8,-717.8 -488.8,-1128.2 l -0.4,-1.6 c -8.9,-42 -50.2,-68.9 -92.2,-60 -36.3,7.7 -61.3,39.6 -61.7,75.3 -2.5,224.3 28.7,451 92.5,668.2 61.6,218.2 151.9,429.1 267.7,626.2 230.5,393.1 559.5,745.1 991.3,960.7 108.4,51.6 221.3,97 340.2,127.2 118.8,29.7 241.8,47.9 365.9,49.5 248.7,2.6 496,-52.4 717.9,-164.2 221.3,-112 413.3,-277.3 558,-476.3 72.4,-99.5 133.1,-207.3 180.9,-320.7 50,-113.4 76.5,-232.8 102.7,-351.1 44.2,-240.3 28.8,-489.3 -29.7,-721.7 -58.4,-233.2 -160.6,-450.2 -288.1,-646.1 -126.7,-197.1 -282.2,-370.8 -451.7,-525.2 -169.3,-155 -353.1,-292.6 -549,-408.1 l -72.9,-44.4 c -24.7,-14 -50,-26.8 -75,-40.2 -50.4,-26.4 -99.8,-53.7 -151.2,-79.1 -103.8,-50.7 -211.3,-93.9 -320.4,-131.9 -218.8,-74.6 -446.9,-123.7 -678,-141.9 -231,-19.7 -464.9,-8.5 -693.7,31.9 -224.8,39.9 -442.9,100.7 -655.3,176.5 l 63.6,-11 h -0.9 -5941.3 l 63.5,11 -1.1,-0.3 c -212.5,-75.8 -430.4,-136.6 -655.4,-176.4 -228.8,-40.3 -462.6,-51.4 -693.5,-31.6 -231.1,18.3 -459.2,67.5 -677.9,142.2 -109.2,38 -216.6,81.2 -320.4,131.9 -51.3,25.5 -100.7,52.8 -151.1,79.1 -25,13.5 -50.3,26.2 -75,40.4 l -72.8,44.3 c -195.9,115.5 -379.7,253.1 -548.9,408.2 -169.4,154.5 -325,328.2 -451.6,525.3 -127.3,195.9 -229.4,413 -287.8,646.2 -58.9,232.3 -73.7,481.4 -29.7,721.6 26.4,118.3 52.9,237.7 102.9,351.1 47.9,113.4 108.3,221.4 180.9,320.8 144.8,199 337,364.1 558.3,476.1 222.2,111.3 469.3,166.5 718.1,163.7 124.1,-1.6 247.1,-19.7 365.8,-49.7 118.9,-30.2 231.8,-75.6 340.2,-127.3 431.6,-215.6 760.8,-567.3 991.3,-960.4 115.8,-197.2 206.2,-408 267.7,-626.2 63.8,-217.3 94.9,-444.1 92.2,-668.3 -0.5,-43 -35.8,-77.4 -78.8,-76.9 -37.1,0.4 -67.8,26.7 -75.2,61.6 l -0.3,1.6"
             style="fill:#000073;fill-opacity:1;fill-rule:nonzero;stroke:none"
             id="path523" /><path
             d="m 21524.9,21897.7 c -67.1,-551.5 -275.2,-976.4 -558.2,-1275.9 -658.8,-700.2 -1722,-715.7 -2330.2,-64 -283,302.6 -467.9,750.2 -467.9,1339.9 1119,-223.6 2237.4,-223.6 3356.3,0"
             style="fill:#000073;fill-opacity:1;fill-rule:nonzero;stroke:none"
             id="path525" /><path
             d="m 20966.7,20621.8 c -658.8,-700.2 -1722,-715.7 -2330.2,-64 658.8,700.1 1722,715.6 2330.2,64"
             style="fill:#ef4141;fill-opacity:1;fill-rule:nonzero;stroke:none"
             id="path527" /><path
             d="m 19062.2,23672.7 c 393.5,226.7 1363,232.2 1784.3,16.3 157.9,-80.9 201.3,-271.8 95.7,-407.4 -492.7,-632.9 -1544,-723.4 -1981.8,22.5 -75.5,128.7 -32.5,291.2 101.8,368.6"
             style="fill:#000073;fill-opacity:1;fill-rule:nonzero;stroke:none"
             id="path529" /><path
             d="m 19944,23450 c -111.2,0 -219.4,26.5 -283.6,85.1 -22.8,20.7 -9.8,46.8 30.6,59.3 60.7,18.7 166.8,28 273,28 101.1,0 202.1,-8.4 263.9,-25.4 47.6,-13 60.6,-43.7 28.9,-65.6 -76,-52.1 -196.1,-81.4 -312.8,-81.4"
             style="fill:#6666ab;fill-opacity:1;fill-rule:nonzero;stroke:none"
             id="path531" /><path
             d="m 18330.5,21709.6 c 72.7,-962.2 702.9,-1431.8 1327.9,-1469.7 678.4,-40.8 1464,403.4 1678.7,1465.1 -998.7,-173.8 -2008.1,-172.3 -3006.6,4.6 z m 1411.3,-1782 c -34.2,0 -68.2,1 -102.2,3.1 -809.3,49 -1625.9,676.3 -1625.9,1967 0,46.4 20.8,90.4 56.7,119.8 35.9,29.4 83.1,41.2 128.6,32.1 1093.4,-218.7 2202.1,-218.7 3295.5,0 48.7,9.7 99.2,-4.4 135.7,-38.3 36.5,-33.8 54.5,-83 48.5,-132.3 -158.1,-1298.7 -1076.1,-1951.4 -1936.9,-1951.4"
             style="fill:#000073;fill-opacity:1;fill-rule:nonzero;stroke:none"
             id="path533" /><path
             d="m 19961.7,21576 c -85.6,0 -154.9,69.3 -154.9,154.8 v 1199.6 c 0,85.6 69.3,154.9 154.9,154.9 85.5,0 154.9,-69.3 154.9,-154.9 v -1199.6 c 0,-85.5 -69.4,-154.8 -154.9,-154.8"
             style="fill:#000073;fill-opacity:1;fill-rule:nonzero;stroke:none"
             id="path535" /><path
             d="m 23448.3,26290.5 c 0,0 -1983.6,279.7 -2065.4,-1503.9 -81.7,-1783.5 346.1,-3872.8 3459.6,-3582.3 3046.4,284.2 2310.6,2693.8 2000.8,3038 -874.1,1144.2 -1989.9,1855.3 -3395,2048.2"
             style="fill:#5f537b;fill-opacity:1;fill-rule:nonzero;stroke:none"
             id="path537" /><path
             d="m 25070,23545.3 c 0,-850.8 -635.8,-1540.5 -1420,-1540.5 -784.2,0 -1419.9,689.7 -1419.9,1540.5 0,850.7 635.7,1540.4 1419.9,1540.4 784.2,0 1420,-689.7 1420,-1540.4"
             style="fill:#ffffff;fill-opacity:1;fill-rule:nonzero;stroke:none"
             id="path539" /><path
             d="m 24226.6,23545.3 c 0,-685.6 -446.6,-1241.4 -997.6,-1241.4 -551,0 -997.7,555.8 -997.7,1241.4 0,685.6 446.7,1241.3 997.7,1241.3 551,0 997.6,-555.7 997.6,-1241.3"
             style="fill:#000073;fill-opacity:1;fill-rule:nonzero;stroke:none"
             id="path541" /><path
             d="m 23835.6,24031.5 c 0,-242.4 -173.4,-438.9 -387.3,-438.9 -213.8,0 -387.2,196.5 -387.2,438.9 0,242.4 173.4,438.9 387.2,438.9 213.9,0 387.3,-196.5 387.3,-438.9"
             style="fill:#ffffff;fill-opacity:1;fill-rule:nonzero;stroke:none"
             id="path543" /><path
             d="m 22893.3,23118.2 c 0,-165.8 -114.2,-300.1 -255,-300.1 -140.8,0 -254.9,134.3 -254.9,300.1 0,165.7 114.1,300.1 254.9,300.1 140.8,0 255,-134.4 255,-300.1"
             style="fill:#ffffff;fill-opacity:1;fill-rule:nonzero;stroke:none"
             id="path545" /><path
             d="m 23650,24930.8 c -697.5,0 -1265,-621.6 -1265,-1385.5 0,-764 567.5,-1385.6 1265,-1385.6 697.6,0 1265.1,621.6 1265.1,1385.6 0,763.9 -567.5,1385.5 -1265.1,1385.5 z m 0,-3080.9 c -868.4,0 -1574.9,760.5 -1574.9,1695.4 0,934.8 706.5,1695.3 1574.9,1695.3 868.4,0 1574.9,-760.5 1574.9,-1695.3 0,-934.9 -706.5,-1695.4 -1574.9,-1695.4"
             style="fill:#000073;fill-opacity:1;fill-rule:nonzero;stroke:none"
             id="path547" /><path
             d="m 23229,24670.1 c -485.8,0 -881.1,-504.6 -881.1,-1124.8 0,-620.3 395.3,-1124.9 881.1,-1124.9 485.8,0 881,504.6 881,1124.9 0,620.2 -395.2,1124.8 -881,1124.8 z m 0,-2482.8 c -614.4,0 -1114.2,609.2 -1114.2,1358 0,748.7 499.8,1357.9 1114.2,1357.9 614.3,0 1114.2,-609.2 1114.2,-1357.9 0,-748.8 -499.9,-1358 -1114.2,-1358"
             style="fill:#000073;fill-opacity:1;fill-rule:nonzero;stroke:none"
             id="path549" /><path
             d="m 24842.6,26334.4 c -53.2,0 -106,22.3 -143.2,65.8 -475.5,554.7 -1240.5,552.8 -1248.7,553.8 h -1.9 c -103,0 -187.4,82.9 -188.7,186.1 -1.3,103.9 81.5,189.2 185.4,190.8 38.1,-0.1 947.3,6.3 1540.1,-685.4 67.7,-79 58.6,-198 -20.5,-265.7 -35.5,-30.5 -79.1,-45.4 -122.5,-45.4"
             style="fill:#000073;fill-opacity:1;fill-rule:nonzero;stroke:none"
             id="path551" /><path
             d="m 15146.1,26334.4 c -43.4,0 -87.1,14.9 -122.6,45.4 -79.1,67.7 -88.2,186.7 -20.5,265.7 592.9,691.8 1502,685.6 1540.2,685.4 104.1,-1.6 187.1,-87.2 185.6,-191.3 -1.6,-103.1 -85.7,-185.6 -188.5,-185.6 -0.8,0 0.3,-0.1 -3.1,0 -27.3,0 -778.7,-6.4 -1247.9,-553.8 -37.3,-43.5 -90.1,-65.8 -143.2,-65.8"
             style="fill:#000073;fill-opacity:1;fill-rule:nonzero;stroke:none"
             id="path553" /><path
             d="m 25302.5,11443.8 c -160.4,-277.8 -559,-348 -890.4,-156.7 -331.3,191.3 -469.9,571.6 -309.5,849.5 160.4,277.8 559.1,347.9 890.4,156.6 331.4,-191.3 469.9,-571.6 309.5,-849.4"
             style="fill:#000073;fill-opacity:1;fill-rule:nonzero;stroke:none"
             id="path555" /><path
             d="m 25524.3,12725.3 c -77.1,-133.4 -268.5,-167.1 -427.7,-75.2 -159.1,91.9 -225.7,274.5 -148.6,408 77,133.4 268.5,167.1 427.6,75.2 159.2,-91.8 225.7,-274.5 148.7,-408"
             style="fill:#000073;fill-opacity:1;fill-rule:nonzero;stroke:none"
             id="path557" /><path
             d="m 26083.7,12122.9 c -77.1,-133.4 -268.6,-167.1 -427.7,-75.2 -159.1,91.9 -225.7,274.5 -148.7,408 77.1,133.4 268.6,167.1 427.7,75.2 159.2,-91.8 225.7,-274.5 148.7,-408"
             style="fill:#000073;fill-opacity:1;fill-rule:nonzero;stroke:none"
             id="path559" /><path
             d="m 24706.7,12743.7 c -68.5,-118.7 -238.8,-148.6 -380.4,-66.9 -141.6,81.7 -200.8,244.2 -132.2,362.9 68.5,118.7 238.8,148.7 380.4,66.9 141.5,-81.7 200.7,-244.2 132.2,-362.9"
             style="fill:#000073;fill-opacity:1;fill-rule:nonzero;stroke:none"
             id="path561" /><path
             d="m 14263.9,11443.8 c 160.4,-277.9 559,-348 890.4,-156.7 331.3,191.3 469.9,571.6 309.5,849.5 -160.4,277.8 -559.1,347.9 -890.4,156.6 -331.3,-191.3 -469.9,-571.6 -309.5,-849.4"
             style="fill:#000073;fill-opacity:1;fill-rule:nonzero;stroke:none"
             id="path563" /><path
             d="m 14042.1,12725.3 c 77.1,-133.4 268.5,-167.1 427.7,-75.2 159.1,91.9 225.7,274.5 148.6,408 -77,133.4 -268.5,167.1 -427.6,75.2 -159.2,-91.8 -225.7,-274.5 -148.7,-408"
             style="fill:#000073;fill-opacity:1;fill-rule:nonzero;stroke:none"
             id="path565" /><path
             d="m 13482.8,12122.9 c 77,-133.4 268.5,-167.1 427.6,-75.2 159.2,91.9 225.7,274.5 148.7,408 -77.1,133.4 -268.5,167.1 -427.7,75.2 -159.1,-91.9 -225.7,-274.5 -148.6,-408"
             style="fill:#000073;fill-opacity:1;fill-rule:nonzero;stroke:none"
             id="path567" /><path
             d="m 14859.7,12743.7 c 68.5,-118.7 238.9,-148.6 380.4,-66.9 141.6,81.7 200.8,244.2 132.2,362.9 -68.5,118.7 -238.8,148.7 -380.4,66.9 -141.5,-81.7 -200.7,-244.2 -132.2,-362.9"
             style="fill:#000073;fill-opacity:1;fill-rule:nonzero;stroke:none"
             id="path569" /><path
             d="m 17899.4,12870.8 c -4,0 -8,0 -12,0.1 -209.4,3.5 -406,98.1 -539.5,259.5 l -286.1,346.1 c -66.3,80.3 -55.1,199.1 25.2,265.4 80.2,66.2 199,55 265.3,-25.2 l 286.2,-346.1 c 63.1,-76.4 156.1,-121.2 255.2,-122.8 97.6,-2.1 193.6,40 259.2,114.3 l 624.5,706 c 35.7,40.5 87.2,63.7 141.2,63.7 H 20775 c 54,0 105.4,-23.2 141.2,-63.7 l 624.5,-706.1 c 65.6,-74.2 160.7,-116.4 259.2,-114.2 99,1.6 192.1,46.4 255.2,122.8 l 286.1,346.1 c 66.4,80.2 185.2,91.4 265.4,25.2 80.3,-66.3 91.5,-185.1 25.2,-265.4 l -286.2,-346.1 c -133.4,-161.5 -330.1,-256 -539.5,-259.5 -208.8,-1.4 -409.1,84.5 -547.8,241.4 l -568.2,642.5 h -1686.6 l -568.2,-642.5 c -136.1,-153.9 -330.9,-241.5 -535.9,-241.5"
             style="fill:#000073;fill-opacity:1;fill-rule:nonzero;stroke:none"
             id="path571" /><path
             d="m 22112.7,14970 h -4532 c -104.1,0 -188.5,84.3 -188.5,188.4 0,104.1 84.4,188.5 188.5,188.5 h 4532 c 104.1,0 188.5,-84.4 188.5,-188.5 0,-104.1 -84.4,-188.4 -188.5,-188.4"
             style="fill:#000073;fill-opacity:1;fill-rule:nonzero;stroke:none"
             id="path573" /><path
             d="m 20382.3,14513.9 h -1187.9 c -102.2,0 -184.9,82.8 -184.9,184.9 v 274.7 c 0,102.1 82.7,184.9 184.9,184.9 h 1187.9 c 102.1,0 184.9,-82.8 184.9,-184.9 v -274.7 c 0,-102.1 -82.8,-184.9 -184.9,-184.9"
             style="fill:#000073;fill-opacity:1;fill-rule:nonzero;stroke:none"
             id="path575" /><path
             d="m 18564.7,14591.4 h -560.3 c -94.8,0 -171.6,76.8 -171.6,171.6 v 223.8 c 0,94.8 76.8,171.6 171.6,171.6 h 560.3 c 94.8,0 171.7,-76.8 171.7,-171.6 V 14763 c 0,-94.8 -76.9,-171.6 -171.7,-171.6"
             style="fill:#000073;fill-opacity:1;fill-rule:nonzero;stroke:none"
             id="path577" /><path
             d="m 21660.9,14591.4 h -560.3 c -94.8,0 -171.7,76.8 -171.7,171.6 v 223.8 c 0,94.8 76.9,171.6 171.7,171.6 h 560.3 c 94.8,0 171.6,-76.8 171.6,-171.6 V 14763 c 0,-94.8 -76.8,-171.6 -171.6,-171.6"
             style="fill:#000073;fill-opacity:1;fill-rule:nonzero;stroke:none"
             id="path579" /><path
             d="m 18183.9,15925.3 h -233.4 c -204.2,0 -369.8,-165.6 -369.8,-369.8 v -20.5 c 0,-50.6 41.1,-91.7 91.7,-91.7 h 156 v -109.7 h 477.6 v 109.7 h 156 c 50.7,0 91.7,41.1 91.7,91.7 v 20.5 c 0,204.2 -165.5,369.8 -369.8,369.8"
             style="fill:#000073;fill-opacity:1;fill-rule:nonzero;stroke:none"
             id="path581" /><path
             d="m 21630.4,15925.3 h -233.5 c -204.2,0 -369.7,-165.6 -369.7,-369.8 v -20.5 c 0,-50.6 41,-91.7 91.7,-91.7 h 155.9 v -109.7 h 477.7 v 109.7 h 156 c 50.6,0 91.7,41.1 91.7,91.7 v 20.5 c 0,204.2 -165.6,369.8 -369.8,369.8"
             style="fill:#000073;fill-opacity:1;fill-rule:nonzero;stroke:none"
             id="path583" /><path
             d="m 20094.2,17594.1 c -3033.1,138 -4982.2,867.7 -6234,1765.7 1260.4,-413 2624,-619.6 3975.8,-619.6 2693.8,0 5338.9,820.9 7017.5,2465.1 3033.5,289 2299.3,2693.2 1989.8,3037 -85.5,112 -173.5,219.9 -263.7,323.6 204.7,1376 79.477,3080.93 -727.423,4945.63 384.2,-371.8 1038.544,-866.116 1266.169,-1301.262 106.393,-165.316 49.065,-83.902 121.245,-217.194 0,0 51.056,-107.047 51.556,-108.647 60.627,-120.893 281.271,-598.231 380.471,-760.831 2203.497,-3992.431 754.669,-9004.607 -7078.418,-9500.796 -162.9,-11.4 -329.4,-21 -499,-28.7"
             style="fill:#b2b2d5;fill-opacity:1;fill-rule:nonzero;stroke:none"
             id="path585"
             sodipodi:nodetypes="ccscccccccccc" /><path
             d="m 19620.8,17555.5 c -1682.2,76.1 -3090.3,340.4 -4250.3,747.7 -801.5,320.4 -1473.5,713.6 -2024.5,1163 l -32.6,88.3 c 179.7,-69.3 362.3,-134.3 546.8,-194.7 1251.8,-898 3200.9,-1627.7 6234,-1765.7 169.6,7.7 336.1,17.3 499,28.7 -313.5,-29.7 -637.4,-52.2 -972.4,-67.3"
             style="fill:#000073;fill-opacity:1;fill-rule:nonzero;stroke:none"
             id="path587" /><path
             d="m 24853.5,21205.3 c 901.4,882.9 1524,2002.5 1726.1,3360.6 90.2,-103.7 178.2,-211.6 263.7,-323.6 309.5,-343.8 1043.7,-2748 -1989.8,-3037"
             style="fill:#423a79;fill-opacity:1;fill-rule:nonzero;stroke:none"
             id="path589" /><path
             d="m 23469.6,13677.1 c -198.9,3.2 -397.4,14.1 -590.8,41.4 1590.2,678.8 2546.3,1656.9 639.9,3985.2 315.3,82.8 618.3,175.6 909.1,278.4 264.7,-374.7 519.7,-754.7 749.7,-1146.1 126,-216.2 243.6,-436.1 346.4,-660.3 102.3,-224 189.9,-453.2 245.4,-684.3 l 20.4,-86.7 14.4,-86.6 c 4.1,-28.8 10.8,-57.8 12.9,-86.4 l 7,-85.9 3.7,-42.9 -0.4,-42.3 -0.6,-84.5 c -0.6,-28 -5.7,-55 -8.1,-82.6 -3.7,-27.1 -3.7,-55.5 -11.5,-81.4 -41.7,-213.2 -143.5,-405.1 -309.5,-551.8 -32.5,-29.8 -66.9,-58.2 -103,-85 -72,9.9 -144.7,14.9 -217.7,14.9 -5.7,0 -11.4,-0.1 -17.1,-0.1 -124.1,-1.6 -247.1,-19.8 -365.9,-49.5 -118.9,-30.2 -231.8,-75.6 -340.2,-127.2 -167,-83.4 -318.6,-187.2 -455.1,-305.8 -54.8,-7 -109.5,-13.4 -164.4,-20.8 -30.2,-5.2 -60.1,-5.5 -89.9,-6.1 l -89.8,-2.6 -184.9,-1"
             style="fill:#423a79;fill-opacity:1;fill-rule:nonzero;stroke:none"
             id="path591" /><path
             d="m 23518.7,17703.7 c -47.1,57.5 -96.1,116.1 -146.8,175.3 l 945,278.1 c 5.7,-20.4 15,-40.1 28,-58.4 l 0.3,-0.4 c 27.6,-38.7 55.1,-77.4 82.6,-116.2 -290.8,-102.8 -593.8,-195.6 -909.1,-278.4"
             style="fill:#000073;fill-opacity:1;fill-rule:nonzero;stroke:none"
             id="path593" /><path
             d="m 23741.6,13447.2 -361.9,42.8 -706.2,83.1 c 2.5,20 1.8,40.2 -2,59.9 70.1,28 139.3,56.5 207.3,85.5 193.4,-27.3 391.9,-38.2 590.8,-41.4 l 184.9,1 89.8,2.6 c 29.8,0.6 59.7,0.9 89.9,6.1 54.9,7.4 109.6,13.8 164.4,20.8 -92.6,-80.5 -178.2,-167.9 -257,-260.4 m 1889.2,676.9 c -77.2,23.1 -156.2,40.2 -236.2,51.2 36.1,26.8 70.5,55.2 103,85 166,146.7 267.8,338.6 309.5,551.8 7.8,25.9 7.8,54.3 11.5,81.4 2.4,27.6 7.5,54.6 8.1,82.6 l 0.6,84.5 0.4,42.3 -3.7,42.9 -7,85.9 c -2.1,28.6 -8.8,57.6 -12.9,86.4 l -14.4,86.6 -20.4,86.7 c -55.5,231.1 -143.1,460.3 -245.4,684.3 -102.8,224.2 -220.4,444.1 -346.4,660.3 -230,391.4 -485,771.4 -749.7,1146.1 -27.5,38.8 -55,77.5 -82.6,116.2 l -0.3,0.4 c -13,18.3 -22.3,38 -28,58.4 l 172.4,50.8 h 9.3 c 1212.3,-1694.3 2044.2,-3236.4 1132.2,-4083.8"
             style="fill:#000073;fill-opacity:1;fill-rule:nonzero;stroke:none"
             id="path595" /><path
             d="m 23895.5,13429.1 -153.9,18.1 c 78.8,92.5 164.4,179.9 257,260.4 136.5,118.6 288.1,222.4 455.1,305.8 108.4,51.6 221.3,97 340.2,127.2 118.8,29.7 241.8,47.9 365.9,49.5 5.7,0 11.4,0.1 17.1,0.1 73,0 145.7,-5 217.7,-14.9 80,-11 159,-28.1 236.2,-51.2 -51.3,-47.7 -108.1,-93.2 -170.8,-136.4 -86.5,35.1 -178.6,50.2 -272.9,50.2 -455.3,0 -965,-352.1 -1183.2,-521.1 -68.6,-52.6 -108.4,-87.7 -108.4,-87.7"
             style="fill:#000073;fill-opacity:1;fill-rule:nonzero;stroke:none"
             id="path597" /><path
             d="m 22673.5,13573.1 -119,14 c 39.3,15.1 78.3,30.5 117,45.9 3.8,-19.7 4.5,-39.9 2,-59.9"
             style="fill:#000073;fill-opacity:1;fill-rule:nonzero;stroke:none"
             id="path599" /><path
             d="m 16223.9,13677.1 -184.9,1 -89.7,2.6 c -29.9,0.6 -59.8,0.9 -90,6.1 -54.7,7.4 -109.4,13.8 -164.1,20.7 -112,97.3 -234,184.6 -366.4,258.8 1237.7,0.3 1946,334.2 1907,1138.6 138,-45.1 267.2,-109.7 378.3,-193.7 86.5,-65.3 160.4,-142.7 213.4,-227.3 52.1,-84.7 83.1,-175.9 83.3,-263.1 0,-87.1 -25.7,-171.7 -80.9,-248.7 -52.4,-78 -134,-145.7 -225.1,-203.6 -186.2,-114.5 -416.4,-184.7 -652,-227.4 -236.3,-44.2 -482.4,-60 -728.9,-64"
             style="fill:#423a79;fill-opacity:1;fill-rule:nonzero;stroke:none"
             id="path601" /><path
             d="m 16422.3,13523.1 c -212.4,0 -427.5,30.1 -631.1,96.2 -31.2,30.2 -63.1,59.7 -96,88.2 54.7,-6.9 109.4,-13.3 164.1,-20.7 30.2,-5.2 60.1,-5.5 90,-6.1 l 89.7,-2.6 184.9,-1 c 246.5,4 492.6,19.8 728.9,64 235.6,42.7 465.8,112.9 652,227.4 91.1,57.9 172.7,125.6 225.1,203.6 55.2,77 80.9,161.6 80.9,248.7 -0.2,87.2 -31.2,178.4 -83.3,263.1 -53,84.6 -126.9,162 -213.4,227.3 -111.1,84 -240.3,148.6 -378.3,193.7 -1.8,37.4 -5.2,75.8 -10.2,115.2 -3.6,36.5 -6.5,72.6 -8.8,108.4 67,-35.2 129.1,-70.8 186.4,-106.6 -7.1,-19.8 -11,-41.2 -11,-63.5 0,-104.1 84.4,-188.4 188.5,-188.4 h 147.4 c 40,-40.2 74.9,-80.4 104.7,-120.4 v -86.6 c 0,-78.7 53,-145.1 125.3,-165.3 91.2,-356.2 -183.4,-680.2 -609,-877.2 -37.1,42.6 -89.4,64.6 -142.2,64.6 -42.3,0 -84.8,-14.2 -119.9,-43.2 -43.7,-36.1 -67,-87.8 -68.4,-140.3 -188.1,-50.5 -391,-78.5 -596.3,-78.5"
             style="fill:#000073;fill-opacity:1;fill-rule:nonzero;stroke:none"
             id="path603" /><path
             d="m 15791.2,13619.3 c -219.9,71.4 -426.5,184.9 -602.4,348.3 46.9,-0.9 93,-1.3 138.5,-1.3 0.5,0 1,0 1.5,0 132.4,-74.2 254.4,-161.5 366.4,-258.8 32.9,-28.5 64.8,-58 96,-88.2"
             style="fill:#000073;fill-opacity:1;fill-rule:nonzero;stroke:none"
             id="path605" /><path
             d="m 17018.6,13601.6 c 1.4,52.5 24.7,104.2 68.4,140.3 35.1,29 77.6,43.2 119.9,43.2 52.8,0 105.1,-22 142.2,-64.6 -102.4,-47.4 -213.6,-87.5 -330.5,-118.9"
             style="fill:#000073;fill-opacity:1;fill-rule:nonzero;stroke:none"
             id="path607" /><path
             d="m 17728.1,14970 h -147.4 c -104.1,0 -188.5,84.3 -188.5,188.4 0,22.3 3.9,43.7 11,63.5 133.3,-83.2 240.6,-167.5 324.9,-251.9"
             style="fill:#000073;fill-opacity:1;fill-rule:nonzero;stroke:none"
             id="path609" /><path
             d="m 17958.1,14597.7 c -72.3,20.2 -125.3,86.6 -125.3,165.3 v 86.6 c 63.3,-84.9 104.1,-169.3 125.3,-251.9"
             style="fill:#000073;fill-opacity:1;fill-rule:nonzero;stroke:none"
             id="path611" /><path
             d="m 16123.4,15493.6 c 166.4,397.3 605.3,1233 1457.3,1567.6 0,0 -278.6,-479.7 -352.5,-1189.4 -162.9,-93.9 -325.5,-197 -487.5,-309.1 -12.6,0.2 -25.1,0.3 -37.7,0.3 -159.3,0 -317.8,-16.5 -472.3,-46.6 -36,-6.8 -71.8,-14.5 -107.3,-22.8"
             style="fill:#423a79;fill-opacity:1;fill-rule:nonzero;stroke:none"
             id="path613" /><path
             d="m 17210.5,15503.7 c -50.7,12.3 -101.6,22.6 -152.7,30.9 -105.4,17.3 -211.4,26.4 -317.1,28.1 162,112.1 324.6,215.2 487.5,309.1 -12.2,-116.8 -18.8,-239.9 -17.7,-368.1"
             style="fill:#b2b2d5;fill-opacity:1;fill-rule:nonzero;stroke:none"
             id="path615" /><path
             d="m 17231.6,15163.6 c 0,0 -226.9,171.2 -693.8,171.2 -142.5,0 -307.4,-16 -495.1,-57.6 0,0 25.2,83.7 80.7,216.4 35.5,8.3 71.3,16 107.3,22.8 154.5,30.1 313,46.6 472.3,46.6 12.6,0 25.1,-0.1 37.7,-0.3 105.7,-1.7 211.7,-10.8 317.1,-28.1 51.1,-8.3 102,-18.6 152.7,-30.9 0.5,-57.4 2.5,-115.8 6.3,-175.2 -3.2,1.7 -6.5,3.4 -9.8,5.1 7.7,-38.8 13.8,-76.5 18.6,-113.5 1.8,-18.7 3.8,-37.6 6,-56.5"
             style="fill:#000073;fill-opacity:1;fill-rule:nonzero;stroke:none"
             id="path617" /><path
             d="m 17225.6,15220.1 c -4.8,37 -10.9,74.7 -18.6,113.5 3.3,-1.7 6.6,-3.4 9.8,-5.1 2.3,-35.8 5.2,-71.9 8.8,-108.4"
             style="fill:#000073;fill-opacity:1;fill-rule:nonzero;stroke:none"
             id="path619" /><path
             d="m 23587,15415.6 c -45,13.7 -90.5,26.2 -136.5,37.2 -115.6,28.3 -234.3,49.1 -354.6,60.3 -209.2,136.6 -417.6,260.4 -625.6,371.5 -54.9,710.7 -320.1,1197.1 -320.1,1197.1 887,-376.4 1301.5,-1295.4 1436.8,-1666.1"
             style="fill:#423a79;fill-opacity:1;fill-rule:nonzero;stroke:none"
             id="path621" /><path
             d="m 22476.7,15479.2 c 6.6,141.4 3.5,277.1 -6.4,405.4 208,-111.1 416.4,-234.9 625.6,-371.5 -66.8,6.3 -134,9.6 -201.6,9.6 -84.3,0 -169.2,-5.2 -253.9,-16.2 -54.6,-6.9 -109.2,-15.9 -163.7,-27.3"
             style="fill:#b2b2d5;fill-opacity:1;fill-rule:nonzero;stroke:none"
             id="path623" /><path
             d="m 22447.9,15175.3 c 14.9,103.8 24.2,205.2 28.8,303.9 54.5,11.4 109.1,20.4 163.7,27.3 84.7,11 169.6,16.2 253.9,16.2 67.6,0 134.8,-3.3 201.6,-9.6 120.3,-11.2 239,-32 354.6,-60.3 46,-11 91.5,-23.5 136.5,-37.2 36.2,-99 52.4,-158.9 52.4,-158.9 -208.9,52.3 -390.2,71.6 -543.9,71.6 -432.9,0 -647.6,-153 -647.6,-153"
             style="fill:#000073;fill-opacity:1;fill-rule:nonzero;stroke:none"
             id="path625" /><path
             d="m 17832.8,12009.6 c -466.2,7.5 -934.5,196.7 -1405.7,635.3 -53.4,140.7 -118.9,277.3 -195.6,407.9 -49.8,84.9 -104.1,167.8 -163.2,247.9 29.8,-0.3 59.2,-0.4 88.6,-0.5 263.2,-146.3 632.6,-406.4 1114.4,-868.7 138.1,-132.5 309.8,-245.4 505.8,-339.9 17.8,-27.6 36.4,-54.9 55.7,-82"
             style="fill:#423a79;fill-opacity:1;fill-rule:nonzero;stroke:none"
             id="path627" /><path
             d="m 17777.1,12091.6 c -196,94.5 -367.7,207.4 -505.8,339.9 -481.8,462.3 -851.2,722.4 -1114.4,868.7 23.6,0 47.2,0 71,-0.1 262.9,4.3 527.9,20.8 793.1,70.3 36.7,6.8 73.5,14.1 110.2,22.1 l 216.7,-262.1 c 14.2,-17.1 29,-33.5 44.5,-49.1 51.8,-265.2 160.1,-642.7 384.7,-989.7"
             style="fill:#b2b2d5;fill-opacity:1;fill-rule:nonzero;stroke:none"
             id="path629" /><path
             d="m 16227.9,13300.1 c -23.8,0.1 -47.4,0.1 -71,0.1 -29.4,0.1 -58.8,0.2 -88.6,0.5 -32.2,43.7 -65.8,86.5 -100.7,128.4 H 17101 l 30.2,-36.6 c -36.7,-8 -73.5,-15.3 -110.2,-22.1 -265.2,-49.5 -530.2,-66 -793.1,-70.3"
             style="fill:#000073;fill-opacity:1;fill-rule:nonzero;stroke:none"
             id="path631" /><path
             d="m 16427.1,12644.9 c -219.9,204.8 -440.4,463.8 -661.7,784.2 h 202.2 c 34.9,-41.9 68.5,-84.7 100.7,-128.4 59.1,-80.1 113.4,-163 163.2,-247.9 76.7,-130.6 142.2,-267.2 195.6,-407.9"
             style="fill:#000073;fill-opacity:1;fill-rule:nonzero;stroke:none"
             id="path633" /><path
             d="m 17392.4,13081.3 c -15.5,15.6 -30.3,32 -44.5,49.1 l -216.7,262.1 -30.2,36.6 h 244.8 c 0,0 5.8,-139.1 46.6,-347.8"
             style="fill:#000073;fill-opacity:1;fill-rule:nonzero;stroke:none"
             id="path635" /><path
             d="m 22112.7,12009.6 c 0,0 0.7,0.8 2.1,2.3 -0.7,-0.7 -1.4,-1.5 -2.1,-2.3 m 2.1,2.3 c 58.8,62.8 108.3,142.3 149.9,231.3 17.7,15.2 34.4,30.6 49.7,46.3 420,427.3 909,729.6 1236.3,904.4 -30.9,-46.4 -60.3,-93.5 -88.3,-141.2 -52.7,-89.7 -100.1,-182.2 -141.9,-276.9 -561.1,-90.6 -1165.1,-720.9 -1205.7,-763.9"
             style="fill:#423a79;fill-opacity:1;fill-rule:nonzero;stroke:none"
             id="path637" /><path
             d="m 22264.7,12243.2 c 159.1,340.1 204.1,820.6 216.8,1051.5 l 80.8,97.8 c 36.8,-8 73.5,-15.3 110.2,-22.1 265.3,-49.5 530.2,-66 793.2,-70.3 53.5,0.2 106.2,0 159.9,0.6 -25.9,-35.1 -50.8,-70.7 -74.9,-106.8 -327.3,-174.8 -816.3,-477.1 -1236.3,-904.4 -15.3,-15.7 -32,-31.1 -49.7,-46.3"
             style="fill:#b2b2d5;fill-opacity:1;fill-rule:nonzero;stroke:none"
             id="path639" /><path
             d="m 23465.7,13300.1 c -263,4.3 -527.9,20.8 -793.2,70.3 -36.7,6.8 -73.4,14.1 -110.2,22.1 l 30.2,36.5 1133.8,0.1 c -35,-41.9 -68.5,-84.7 -100.7,-128.4 -53.7,-0.6 -106.4,-0.4 -159.9,-0.6"
             style="fill:#000073;fill-opacity:1;fill-rule:nonzero;stroke:none"
             id="path641" /><path
             d="m 23320.5,12775.8 c 41.8,94.7 89.2,187.2 141.9,276.9 28,47.7 57.4,94.8 88.3,141.2 24.1,36.1 49,71.7 74.9,106.8 32.2,43.7 65.7,86.5 100.7,128.4 h 79.4 l -306.8,-644.2 c -16.2,1.1 -32.5,1.7 -48.9,1.7 -42.7,0 -86,-3.8 -129.5,-10.8"
             style="fill:#000073;fill-opacity:1;fill-rule:nonzero;stroke:none"
             id="path643" /><path
             d="m 22481.5,13294.7 c 4.6,83.4 5,134.3 5,134.3 h 106 l -30.2,-36.5 -80.8,-97.8"
             style="fill:#000073;fill-opacity:1;fill-rule:nonzero;stroke:none"
             id="path645" /><path
             d="m 23810.435,9690.1318 c -81.1,0 -162.2,4.3 -242.8,12.8 402.4,98.6 825.7,340.2002 1184.9,660.1002 201.9,5.5 384,97.5 480.2,264.2 61.9,107.2 79.3,229.8 58.2,350.8 73.5,110.8 137.7,224.7 190.9,340.7 27.9,-33.7 63,-63.7 104.4,-87.6 60.6,-35 125.9,-51.8 187.7,-51.8 100.7,0 192.2,44.4 240,127 77,133.5 10.5,316.2 -148.7,408 -60.6,35 -125.9,51.8 -187.7,51.8 -17.7,0 -35.1,-1.4 -52.1,-4.1 75.8,408.2 -11.1,815.7 -341.9,1161 19.7,0.9 39.5,1.3 59.3,1.3 41.5,0 83.1,-2 125,-6.1 55.8,-17.6 110.2,-39.4 162.4,-65.3 165.4,-80.4 311.9,-202 423.5,-350.5 55.9,-74.1 103.1,-154.9 139.6,-240.3 38.6,-84.2 58.6,-177.1 80.9,-268.7 35.4,-185.1 26.1,-377.3 -20.3,-563 -46.6,-185.9 -129.9,-364.9 -237.6,-530.6 -106.7,-166.6 -241.7,-317.8 -391,-453.7 -149,-136.4 -312.6,-259.5 -488.9,-363 l -65.4,-40.1 -67.7,-36.2 c -45.3,-23.6002 -90.4,-48.7002 -135.8,-71.2002 -90.1,-44.1 -183.5,-81.4 -278.2,-114.4 -189.7,-64.7 -387.2,-107.2 -586.7,-122.9 -63.9,-5.5 -128.1,-8.2 -192.2,-8.2"
             style="fill:#423a79;fill-opacity:1;fill-rule:nonzero;stroke:none"
             id="path647" /><path
             d="m 25537.6,13734.8 c -41.9,4.1 -83.5,6.1 -125,6.1 -19.8,0 -39.6,-0.4 -59.3,-1.3 -13.9,14.4 -28.1,28.7 -42.8,42.9 76.9,-8.4 153.2,-24.3 227.1,-47.7"
             style="fill:#807cab;fill-opacity:1;fill-rule:nonzero;stroke:none"
             id="path649" /><path
             d="m 23879.7,10318 c -154,0 -308.4,14.1 -461.3,42.9 -148.7,27.9 -295.9,65.1 -442,111 l -17,37.2 c 95,-25.9 195.5,-38.1 299.5,-38.1 122.1,0 249.3,16.9 378.5,48.5 80.6,-8.5 161.7,-12.8 242.8,-12.8 64.1,0 128.3,2.7 192.2,8.2 199.5,15.7 397,58.2 586.7,122.9 94.7,33 188.1,70.3 278.2,114.4 45.4,22.5 90.5,47.6 135.8,71.2 l 67.7,36.2 65.4,40.1 c 176.3,103.5 339.9,226.6 488.9,363 149.3,135.9 284.3,287.1 391,453.7 107.7,165.7 191,344.7 237.6,530.6 46.4,185.7 55.7,377.9 20.3,563 -22.3,91.6 -42.3,184.5 -80.9,268.7 -36.5,85.4 -83.7,166.2 -139.6,240.3 -111.6,148.5 -258.1,270.1 -423.5,350.5 -52.2,25.9 -106.6,47.7 -162.4,65.3 -73.9,23.4 -150.2,39.3 -227.1,47.7 -72.7,70.4 -156,137.9 -250.6,202.2 -2.6,1.5 -5.7,3.6 -8.8,5.6 l 65.1,-2 222.5,-6.7 c 91.9,-10.4 184.3,-30.5 276.8,-61.5 414.1,-138.4 739.4,-473.5 870.5,-890.2 295.4,-936.6 -379.5,-1913.6 -1453.5,-2441.3 -360.2,-176.7 -755.3,-270.6 -1152.8,-270.6"
             style="fill:#000073;fill-opacity:1;fill-rule:nonzero;stroke:none"
             id="path651" /><path
             d="m 24822.3,11179.6 c 206,183.4 390.7,392.4 538.4,615 21.1,-121 3.7,-243.6 -58.2,-350.8 -96.2,-166.7 -278.3,-258.7 -480.2,-264.2"
             style="fill:#000073;fill-opacity:1;fill-rule:nonzero;stroke:none"
             id="path653" /><path
             d="m 25843.7,11995.9 c -61.8,0 -127.1,16.8 -187.7,51.8 -41.4,23.9 -76.5,53.9 -104.4,87.6 66.8,145.8 116,294.6 143.6,443.3 17,2.7 34.4,4.1 52.1,4.1 61.8,0 127.1,-16.8 187.7,-51.8 159.2,-91.8 225.7,-274.5 148.7,-408 -47.8,-82.6 -139.3,-127 -240,-127"
             style="fill:#000073;fill-opacity:1;fill-rule:nonzero;stroke:none"
             id="path655" /></g></g></g></g></svg>
